<?xml version="1.0" encoding="UTF-8" standalone="no"?>
<svg
   xmlns:dc="http://purl.org/dc/elements/1.1/"
   xmlns:cc="http://creativecommons.org/ns#"
   xmlns:rdf="http://www.w3.org/1999/02/22-rdf-syntax-ns#"
   xmlns:svg="http://www.w3.org/2000/svg"
   xmlns="http://www.w3.org/2000/svg"
   xmlns:sodipodi="http://sodipodi.sourceforge.net/DTD/sodipodi-0.dtd"
   xmlns:inkscape="http://www.inkscape.org/namespaces/inkscape"
   data-name="Слой 1"
   id="Слой_1"
   viewBox="0 0 128 128"
   version="1.1"
   sodipodi:docname="number-question.svg"
   inkscape:version="1.0.2 (e86c8708, 2021-01-15)">
  <metadata
     id="metadata8686">
    <rdf:RDF>
      <cc:Work
         rdf:about="">
        <dc:format>image/svg+xml</dc:format>
        <dc:type
           rdf:resource="http://purl.org/dc/dcmitype/StillImage" />
      </cc:Work>
    </rdf:RDF>
  </metadata>
  <defs
     id="defs8684" />
  <sodipodi:namedview
     pagecolor="#ffffff"
     bordercolor="#666666"
     borderopacity="1"
     objecttolerance="10"
     gridtolerance="10"
     guidetolerance="10"
     inkscape:pageopacity="0"
     inkscape:pageshadow="2"
     inkscape:window-width="1472"
     inkscape:window-height="985"
     id="namedview8682"
     showgrid="false"
     inkscape:zoom="4.7264009"
     inkscape:cx="92.861079"
     inkscape:cy="54.814492"
     inkscape:window-x="0"
     inkscape:window-y="25"
     inkscape:window-maximized="0"
     inkscape:current-layer="Слой_1"
     inkscape:document-rotation="0" />
  <title
     id="title8675" />
  <path
     d="M96.48,47.24h-13l1.67-14a2,2,0,0,0-4-.48L79.48,47.24H54l1.66-14a2,2,0,1,0-4-.48L50,47.24H34.48a2,2,0,0,0,0,4h15l-3,25.52H31.52a2,2,0,1,0,0,4H46l-1.67,14A2,2,0,0,0,46.05,97h.24a2,2,0,0,0,2-1.76L50,80.76H75.49l-1.67,14A2,2,0,0,0,75.57,97h.24a2,2,0,0,0,2-1.76l1.72-14.48h14a2,2,0,0,0,0-4H80l3-25.52H96.48a2,2,0,0,0,0-4ZM76,76.76H50.47l3-25.52H79Z"
     id="path8677"
     style="stroke:#8d8d8d;stroke-opacity:1;fill:#8d8d8d;fill-opacity:1" />
</svg>
