<?xml version="1.0" encoding="UTF-8" standalone="no"?>
<svg
   xmlns:dc="http://purl.org/dc/elements/1.1/"
   xmlns:cc="http://creativecommons.org/ns#"
   xmlns:rdf="http://www.w3.org/1999/02/22-rdf-syntax-ns#"
   xmlns:svg="http://www.w3.org/2000/svg"
   xmlns="http://www.w3.org/2000/svg"
   xmlns:sodipodi="http://sodipodi.sourceforge.net/DTD/sodipodi-0.dtd"
   xmlns:inkscape="http://www.inkscape.org/namespaces/inkscape"
   enable-background="new 0 0 64 64"
   height="64px"
   id="Icons"
   version="1.1"
   viewBox="0 0 64 64"
   width="64px"
   xml:space="preserve"
   sodipodi:docname="iconfinder_SEO_stopwatch_timer_performance_969248.svg"
   inkscape:version="1.0.2 (e86c8708, 2021-01-15)"><metadata
     id="metadata6302"><rdf:RDF><cc:Work
         rdf:about=""><dc:format>image/svg+xml</dc:format><dc:type
           rdf:resource="http://purl.org/dc/dcmitype/StillImage" /></cc:Work></rdf:RDF></metadata><defs
     id="defs6300" /><sodipodi:namedview
     pagecolor="#ffffff"
     bordercolor="#666666"
     borderopacity="1"
     objecttolerance="10"
     gridtolerance="10"
     guidetolerance="10"
     inkscape:pageopacity="0"
     inkscape:pageshadow="2"
     inkscape:window-width="1680"
     inkscape:window-height="997"
     id="namedview6298"
     showgrid="false"
     inkscape:zoom="11.574653"
     inkscape:cx="47.913902"
     inkscape:cy="32"
     inkscape:window-x="0"
     inkscape:window-y="25"
     inkscape:window-maximized="1"
     inkscape:current-layer="Icons" /><g
     id="stopwatch_x2C__timer"
     style="fill:#8d8d8d;fill-opacity:1"><g
       id="g6294"
       style="fill:#8d8d8d;fill-opacity:1"><path
         d="m 38.067,27.49 -0.516,0.893 c -0.275,0.477 -0.305,0.979 -0.067,1.116 0.238,0.138 0.658,-0.14 0.933,-0.616 l 0.516,-0.893 c 0.275,-0.477 0.305,-0.979 0.067,-1.116 -0.238,-0.138 -0.658,0.14 -0.933,0.616 z"
         fill="#37474f"
         id="path6266"
         style="fill:#8d8d8d;fill-opacity:1" /><path
         d="m 41.5,33.514 c 0.137,0.238 0.639,0.209 1.115,-0.066 l 0.893,-0.516 c 0.477,-0.275 0.754,-0.695 0.617,-0.934 -0.138,-0.237 -0.64,-0.208 -1.116,0.067 l -0.893,0.516 c -0.476,0.275 -0.754,0.695 -0.616,0.933 z"
         fill="#37474f"
         id="path6268"
         style="fill:#8d8d8d;fill-opacity:1" /><path
         d="m 42.97,38.999 c -10e-4,0.275 0.45,0.5 0.999,0.5 H 45 c 0.55,0 1,-0.225 1,-0.5 0,-0.275 -0.449,-0.5 -1,-0.5 h -1.03 c -0.55,0 -1,0.225 -1,0.5 z"
         fill="#37474f"
         id="path6270"
         style="fill:#8d8d8d;fill-opacity:1" /><path
         d="M 43.508,45.066 42.616,44.55 c -0.477,-0.275 -0.979,-0.305 -1.116,-0.066 -0.138,0.237 0.139,0.657 0.615,0.933 l 0.893,0.516 c 0.477,0.275 0.979,0.305 1.116,0.067 0.138,-0.238 -0.14,-0.658 -0.616,-0.934 z"
         fill="#37474f"
         id="path6272"
         style="fill:#8d8d8d;fill-opacity:1" /><path
         d="m 38.417,49.115 c -0.275,-0.477 -0.695,-0.754 -0.933,-0.616 -0.238,0.138 -0.208,0.64 0.067,1.116 l 0.515,0.893 c 0.275,0.477 0.695,0.754 0.933,0.616 0.239,-0.138 0.208,-0.64 -0.067,-1.116 z"
         fill="#37474f"
         id="path6274"
         style="fill:#8d8d8d;fill-opacity:1" /><path
         d="m 32,49.969 c -0.275,0 -0.5,0.45 -0.5,1 v 1.03 c 0,0.55 0.225,1 0.5,1 0.275,0 0.5,-0.45 0.5,-1 v -1.03 c 0,-0.55 -0.226,-1 -0.5,-1 z"
         fill="#37474f"
         id="path6276"
         style="fill:#8d8d8d;fill-opacity:1" /><path
         d="m 25.582,49.115 -0.516,0.892 c -0.275,0.477 -0.305,0.979 -0.067,1.116 0.238,0.137 0.658,-0.14 0.933,-0.616 l 0.516,-0.892 c 0.275,-0.477 0.305,-0.979 0.067,-1.116 -0.238,-0.137 -0.659,0.14 -0.933,0.616 z"
         fill="#37474f"
         id="path6278"
         style="fill:#8d8d8d;fill-opacity:1" /><path
         d="m 21.383,44.551 -0.893,0.515 c -0.477,0.275 -0.753,0.695 -0.616,0.933 0.137,0.238 0.64,0.209 1.116,-0.066 l 0.892,-0.515 c 0.477,-0.275 0.754,-0.695 0.616,-0.933 -0.136,-0.239 -0.638,-0.21 -1.115,0.066 z"
         fill="#37474f"
         id="path6280"
         style="fill:#8d8d8d;fill-opacity:1" /><path
         d="m 21.03,38.999 c 0,-0.275 -0.45,-0.5 -1,-0.5 l -1.031,-0.001 c -0.55,0 -1,0.226 -1,0.5 0,0.275 0.451,0.501 1,0.501 h 1.03 c 0.551,0 1.001,-0.225 1.001,-0.5 z"
         fill="#37474f"
         id="path6282"
         style="fill:#8d8d8d;fill-opacity:1" /><path
         d="m 21.883,32.581 -0.892,-0.516 c -0.477,-0.275 -0.979,-0.305 -1.116,-0.067 -0.138,0.238 0.14,0.658 0.616,0.934 l 0.892,0.516 c 0.477,0.275 0.979,0.305 1.116,0.066 0.138,-0.238 -0.139,-0.658 -0.616,-0.933 z"
         fill="#37474f"
         id="path6284"
         style="fill:#8d8d8d;fill-opacity:1" /><path
         d="M 25.933,27.49 C 25.658,27.013 25.238,26.736 25,26.874 c -0.238,0.138 -0.208,0.64 0.067,1.116 l 0.515,0.893 c 0.275,0.477 0.695,0.754 0.933,0.616 0.238,-0.138 0.208,-0.64 -0.067,-1.116 z"
         fill="#37474f"
         id="path6286"
         style="fill:#8d8d8d;fill-opacity:1" /><path
         d="m 32,22.999 c -8.837,0 -16,7.166 -16,16 0,8.834 7.163,16 16,16 8.837,0 16,-7.166 16,-16 0,-8.834 -7.163,-16 -16,-16 z m 0,31 c -8.284,0 -15,-6.719 -15,-15 0,-8.281 6.716,-15 15,-15 8.284,0 15,6.719 15,15 0,8.281 -6.716,15 -15,15 z"
         fill="#37474f"
         id="path6288"
         style="fill:#8d8d8d;fill-opacity:1" /><path
         d="m 49.5,23.498 0.5,0.5 3,-3 -3,-3 -3,3 0.5,0.5 -2.407,2.407 C 42.055,21.269 38.227,19.52 34,19.1 v -0.418 c 2.887,-0.863 5,-3.515 5,-6.683 0,-3.867 -3.133,-7 -7,-7 -3.867,0 -7,3.133 -7,7 0,3.171 2.109,5.845 5,6.705 V 19.1 c -10.105,1.005 -18,9.53 -18,19.899 0,11.044 8.956,20 20,20 11.045,0 20,-8.956 20,-20 0,-5.014 -1.857,-9.585 -4.906,-13.095 z M 50,19.412 51.586,20.998 50,22.584 48.414,20.998 Z m -1.793,2.793 0.586,0.586 -2.375,2.374 C 46.227,24.966 46.033,24.769 45.834,24.578 Z M 30,13.999 v -3 h 4 v 3 z m 3,1 v 4 h -2 v -4 z m -7,-3 c 0,-3.309 2.691,-6 6,-6 3.309,0 6,2.691 6,6 0,2.604 -1.677,4.802 -4,5.63 v -2.63 h 1 v -5 h -6 v 5 h 1 v 2.633 c -2.324,-0.827 -4,-3.028 -4,-5.633 z m 25,27 c 0,10.477 -8.523,19 -19,19 -10.477,0 -19,-8.523 -19,-19 0,-10.477 8.523,-19 19,-19 10.477,0 19,8.523 19,19 z"
         fill="#37474f"
         id="path6290"
         style="fill:#8d8d8d;fill-opacity:1" /><path
         d="m 32.38,27.656 c 0.071,-0.173 0.12,-0.387 0.12,-0.627 v -1.031 c 0,-0.55 -0.225,-1 -0.5,-1 -0.275,0 -0.5,0.45 -0.5,1 v 1.031 c 0,0.24 0.049,0.454 0.12,0.627 l -1.365,9.557 c -0.465,0.453 -0.755,1.085 -0.755,1.786 0,1.381 1.119,2.5 2.5,2.5 1.381,0 2.5,-1.119 2.5,-2.5 0,-0.701 -0.29,-1.333 -0.755,-1.786 z M 32,32.069 32.646,36.593 C 32.438,36.537 32.225,36.498 32,36.498 c -0.225,0 -0.439,0.039 -0.646,0.095 z m 0,8.43 c -0.828,0 -1.5,-0.673 -1.5,-1.5 0,-0.827 0.672,-1.5 1.5,-1.5 0.828,0 1.5,0.673 1.5,1.5 0,0.827 -0.672,1.5 -1.5,1.5 z"
         fill="#37474f"
         id="path6292"
         style="fill:#8d8d8d;fill-opacity:1" /></g></g></svg>
