<?xml version="1.0" encoding="UTF-8" standalone="no"?>
<svg
   xmlns:dc="http://purl.org/dc/elements/1.1/"
   xmlns:cc="http://creativecommons.org/ns#"
   xmlns:rdf="http://www.w3.org/1999/02/22-rdf-syntax-ns#"
   xmlns:svg="http://www.w3.org/2000/svg"
   xmlns="http://www.w3.org/2000/svg"
   xmlns:sodipodi="http://sodipodi.sourceforge.net/DTD/sodipodi-0.dtd"
   xmlns:inkscape="http://www.inkscape.org/namespaces/inkscape"
   id="Layer_1"
   version="1.1"
   viewBox="0 0 500 500"
   xml:space="preserve"
   sodipodi:docname="50-help.svg"
   width="500"
   height="500"
   inkscape:version="1.0.2 (e86c8708, 2021-01-15)"><metadata
     id="metadata864"><rdf:RDF><cc:Work
         rdf:about=""><dc:format>image/svg+xml</dc:format><dc:type
           rdf:resource="http://purl.org/dc/dcmitype/StillImage" /></cc:Work></rdf:RDF></metadata><defs
     id="defs862"><inkscape:perspective
       sodipodi:type="inkscape:persp3d"
       inkscape:vp_x="786.52501 : 513.8402 : 1"
       inkscape:vp_y="-1823.6863 : 1086.9671 : 0"
       inkscape:vp_z="63.880897 : -216.38587 : 1"
       inkscape:persp3d-origin="580.82416 : 55.972634 : 1"
       id="perspective5079" /><inkscape:perspective
       sodipodi:type="inkscape:persp3d"
       inkscape:vp_x="0 : 244 : 1"
       inkscape:vp_y="0 : 1000 : 0"
       inkscape:vp_z="512 : 244 : 1"
       inkscape:persp3d-origin="256 : 158.66667 : 1"
       id="perspective1036" /></defs><sodipodi:namedview
     pagecolor="#ffffff"
     bordercolor="#666666"
     borderopacity="1"
     objecttolerance="10"
     gridtolerance="10"
     guidetolerance="10"
     inkscape:pageopacity="0"
     inkscape:pageshadow="2"
     inkscape:window-width="1680"
     inkscape:window-height="997"
     id="namedview860"
     showgrid="false"
     showguides="true"
     inkscape:guide-bbox="true"
     inkscape:zoom="0.77292416"
     inkscape:cx="34.223099"
     inkscape:cy="156.00991"
     inkscape:window-x="0"
     inkscape:window-y="25"
     inkscape:window-maximized="1"
     inkscape:current-layer="XMLID_59_"
     inkscape:document-rotation="0"><sodipodi:guide
       position="307.7891,378.1344"
       orientation="0,-1"
       id="guide5081" /></sodipodi:namedview><style
     type="text/css"
     id="style842">
	.st0{fill:#FFFFFF;}
	.st1{fill:#232323;}
	.st2{fill:#14748A;}
</style><g
     id="XMLID_59_"
     transform="translate(-5.3088342,-5.3088347)"><g
       id="XMLID_177_"
       transform="translate(-0.69116584,-0.69116526)"
       style="fill:none;fill-opacity:1;stroke:#288db4;stroke-opacity:1"><path
         class="st0"
         d="M 418.6,418.6 C 375.2,462.1 317.4,486 256,486 194.6,486 136.8,462.1 93.4,418.6 49.9,375.2 26,317.4 26,256 26,194.6 49.9,136.8 93.4,93.4 136.8,49.9 194.6,26 256,26 c 61.4,0 119.2,23.9 162.6,67.4 43.5,43.4 67.4,101.2 67.4,162.6 0,61.4 -23.9,119.2 -67.4,162.6 z"
         id="XMLID_181_"
         style="fill:none;fill-opacity:1;stroke:#288db4;stroke-opacity:1" /><path
         class="st1"
         d="M 256,6 C 117.9,6 6,117.9 6,256 6,394.1 117.9,506 256,506 394.1,506 506,394.1 506,256 506,117.9 394.1,6 256,6 Z M 418.6,418.6 C 375.2,462.1 317.4,486 256,486 194.6,486 136.8,462.1 93.4,418.6 49.9,375.2 26,317.4 26,256 26,194.6 49.9,136.8 93.4,93.4 136.8,49.9 194.6,26 256,26 c 61.4,0 119.2,23.9 162.6,67.4 43.5,43.4 67.4,101.2 67.4,162.6 0,61.4 -23.9,119.2 -67.4,162.6 z"
         id="XMLID_178_"
         style="fill:#288db4;fill-opacity:1;stroke:#288db4;stroke-opacity:1" /></g><g
       id="XMLID_58_"
       transform="translate(-36.626643,-139.86646)"
       style="fill:#288db4;fill-opacity:1;stroke:#288db4;stroke-opacity:1"><g
         id="XMLID_54_-0"
         transform="translate(182.60464,35.625955)"
         style="fill:#288db4;fill-opacity:1;stroke:#288db4;stroke-opacity:1"><g
           id="XMLID_357_-2"
           style="fill:#288db4;fill-opacity:1;stroke:#288db4;stroke-opacity:1"><path
             class="st1"
             d="m 143.8,370.2 4.8,-46.2 h 48.3 v 14.8 H 164.1 L 162,356 c 1.5,-1.1 3.5,-2 5.9,-2.7 2.4,-0.7 5,-1.1 7.8,-1.1 7.7,-0.2 13.6,2.2 17.7,7.1 4.1,4.9 6.2,11.7 6.2,20.6 0,8 -2.3,14.6 -6.9,19.9 -4.6,5.3 -11.9,7.9 -21.8,7.9 -7.9,0 -14.7,-2.1 -20.5,-6.2 -5.8,-4.1 -8.6,-9.6 -8.4,-16.4 l 0.1,-0.3 18.8,-1.1 c 0,2.9 0.9,5.2 2.7,6.9 1.8,1.7 4.3,2.5 7.3,2.5 3.5,0 6,-1.1 7.4,-3.2 1.4,-2.2 2.1,-5.4 2.1,-9.7 0,-4.5 -0.8,-8.1 -2.4,-10.7 -1.6,-2.6 -4.2,-3.9 -7.7,-3.9 -2.5,0 -4.6,0.5 -6.1,1.6 -1.6,1.1 -2.7,2.5 -3.3,4.1 z"
             id="XMLID_367_-4"
             style="fill:#288db4;fill-opacity:1;stroke:#288db4;stroke-opacity:1" /><path
             class="st1"
             d="m 275.2,376.2 c 0,9.9 -2.6,17.6 -7.9,23.1 -5.3,5.6 -12.2,8.4 -20.8,8.4 -8.7,0 -15.7,-2.8 -20.9,-8.4 -5.3,-5.6 -7.9,-13.3 -7.9,-23.1 v -21.9 c 0,-9.9 2.6,-17.6 7.8,-23.1 5.2,-5.6 12.2,-8.4 20.8,-8.4 8.6,0 15.6,2.8 20.8,8.4 5.3,5.6 7.9,13.3 7.9,23.1 v 21.9 z M 256.1,353 c 0,-5 -0.9,-8.9 -2.6,-11.5 -1.7,-2.6 -4.1,-4 -7.1,-4 -3.1,0 -5.4,1.3 -7.1,4 -1.7,2.6 -2.5,6.5 -2.5,11.5 v 24.4 c 0,5.1 0.8,9 2.5,11.6 1.7,2.6 4.1,3.9 7.2,3.9 3,0 5.4,-1.3 7.1,-3.9 1.7,-2.6 2.5,-6.5 2.5,-11.6 z"
             id="XMLID_364_-8"
             style="fill:#288db4;fill-opacity:1;stroke:#288db4;stroke-opacity:1" /></g><g
           id="XMLID_52_-3"
           style="fill:#288db4;fill-opacity:1;stroke:#288db4;stroke-opacity:1" /></g><g
         id="XMLID_54_"
         transform="translate(-8.9851507,37.322934)"
         style="fill:#288db4;fill-opacity:1;stroke:#288db4;stroke-opacity:1"><g
           id="XMLID_357_"
           style="fill:#288db4;fill-opacity:1;stroke:#288db4;stroke-opacity:1"><path
             class="st1"
             d="m 143.8,370.2 4.8,-46.2 h 48.3 v 14.8 H 164.1 L 162,356 c 1.5,-1.1 3.5,-2 5.9,-2.7 2.4,-0.7 5,-1.1 7.8,-1.1 7.7,-0.2 13.6,2.2 17.7,7.1 4.1,4.9 6.2,11.7 6.2,20.6 0,8 -2.3,14.6 -6.9,19.9 -4.6,5.3 -11.9,7.9 -21.8,7.9 -7.9,0 -14.7,-2.1 -20.5,-6.2 -5.8,-4.1 -8.6,-9.6 -8.4,-16.4 l 0.1,-0.3 18.8,-1.1 c 0,2.9 0.9,5.2 2.7,6.9 1.8,1.7 4.3,2.5 7.3,2.5 3.5,0 6,-1.1 7.4,-3.2 1.4,-2.2 2.1,-5.4 2.1,-9.7 0,-4.5 -0.8,-8.1 -2.4,-10.7 -1.6,-2.6 -4.2,-3.9 -7.7,-3.9 -2.5,0 -4.6,0.5 -6.1,1.6 -1.6,1.1 -2.7,2.5 -3.3,4.1 z"
             id="XMLID_367_"
             style="fill:#288db4;fill-opacity:1;stroke:#288db4;stroke-opacity:1" /><path
             class="st1"
             d="m 275.2,376.2 c 0,9.9 -2.6,17.6 -7.9,23.1 -5.3,5.6 -12.2,8.4 -20.8,8.4 -8.7,0 -15.7,-2.8 -20.9,-8.4 -5.3,-5.6 -7.9,-13.3 -7.9,-23.1 v -21.9 c 0,-9.9 2.6,-17.6 7.8,-23.1 5.2,-5.6 12.2,-8.4 20.8,-8.4 8.6,0 15.6,2.8 20.8,8.4 5.3,5.6 7.9,13.3 7.9,23.1 v 21.9 z M 256.1,353 c 0,-5 -0.9,-8.9 -2.6,-11.5 -1.7,-2.6 -4.1,-4 -7.1,-4 -3.1,0 -5.4,1.3 -7.1,4 -1.7,2.6 -2.5,6.5 -2.5,11.5 v 24.4 c 0,5.1 0.8,9 2.5,11.6 1.7,2.6 4.1,3.9 7.2,3.9 3,0 5.4,-1.3 7.1,-3.9 1.7,-2.6 2.5,-6.5 2.5,-11.6 z"
             id="XMLID_364_"
             style="fill:#288db4;fill-opacity:1;stroke:#288db4;stroke-opacity:1" /></g><g
           id="XMLID_52_"
           style="fill:#288db4;fill-opacity:1;stroke:#288db4;stroke-opacity:1" /></g><rect
         style="opacity:0;fill:#288db4;fill-opacity:1;stroke:#288db4;stroke-width:0.00035859;stroke-linejoin:round;stroke-opacity:1;paint-order:stroke fill markers"
         id="rect995"
         width="15.896805"
         height="126.48328"
         x="292.36298"
         y="335.9064" /></g><rect
       style="opacity:0;fill:#000000;fill-opacity:1;stroke:#000000;stroke-width:0.00035859;stroke-linejoin:round;paint-order:stroke fill markers"
       id="rect997"
       width="69.116547"
       height="147.90941"
       x="209.42313"
       y="179.70302" /><rect
       style="opacity:0;fill:#000000;fill-opacity:1;stroke:#000000;stroke-width:0.00035859;stroke-linejoin:round;paint-order:stroke fill markers"
       id="rect999"
       width="125.10094"
       height="36.631767"
       x="187.99699"
       y="127.17444" /><path
       style="opacity:0;fill:#000000;fill-opacity:1;stroke:#000000;stroke-width:0.000247845;stroke-linejoin:round;paint-order:stroke fill markers"
       d="M 231.30585,483.6997 C 187.23913,478.89124 146.36415,462.07135 111.89201,434.56138 102.08949,426.73863 83.789686,408.44733 76.03963,398.72566 49.723833,365.71513 33.489067,327.64957 27.54857,285.02895 26.015541,274.03009 25.447501,247.44984 26.497979,235.86867 31.605803,179.55664 55.401753,129.56503 95.668376,90.552382 131.60284,55.736975 175.26684,34.562475 225.58872,27.54857 c 10.99885,-1.533029 37.57911,-2.101069 49.16028,-1.050591 49.3136,4.473026 93.68185,23.214996 130.6237,55.177872 60.5586,52.396589 89.11532,130.975509 76.53884,210.610339 -15.00263,94.99739 -90.72435,172.01443 -185.82394,189.00272 -19.38539,3.46294 -46.0467,4.45512 -64.78175,2.41079 z M 120.88546,308.46855 c 11.50989,-2.12772 18.67886,-9.84671 20.58554,-22.16491 0.92,-5.94374 -0.0961,-15.24767 -2.19687,-20.11514 -2.11699,-4.90509 -7.09723,-9.86968 -11.58529,-11.54887 -4.96985,-1.85946 -13.07996,-1.88887 -18.92835,-0.0686 l -4.29142,1.33564 0.41033,-3.23634 c 0.22569,-1.77999 0.61694,-5.33576 0.86946,-7.90171 l 0.45913,-4.66537 h 16.49252 16.49253 v -7.60282 -7.60282 h -24.53637 c -13.49501,0 -24.536376,0.25486 -24.536376,0.56635 0,0.93784 -4.093666,40.33576 -4.510606,43.41061 l -0.386806,2.85261 8.794514,0.50724 8.794514,0.50725 1.37681,-1.89006 c 2.80276,-3.84757 8.95145,-4.90186 12.95761,-2.22179 2.98361,1.996 4.71537,6.78063 4.68474,12.94336 -0.0393,7.89509 -2.36421,11.46792 -7.95013,12.21715 -5.19354,0.69661 -10.61842,-3.34508 -10.62592,-7.91662 -0.003,-1.50812 -0.18438,-1.55943 -4.322367,-1.21944 -2.375881,0.19522 -6.730223,0.54143 -9.676316,0.76939 l -5.356532,0.41445 v 2.45271 c 0,11.26016 12.801739,20.67369 28.383635,20.87139 2.49614,0.0317 6.36704,-0.28045 8.60202,-0.69361 z m 78.18635,-0.99094 c 6.99637,-2.32823 13.24182,-8.49378 16.24083,-16.03305 1.48255,-3.727 1.60656,-5.17733 1.83885,-21.50491 0.2773,-19.49084 -0.26644,-24.66661 -3.25445,-30.97868 -5.21065,-11.00727 -17.35059,-16.97299 -30.42197,-14.94972 -12.84595,1.98837 -21.42931,10.63868 -23.51136,23.69476 -0.9273,5.8149 -0.9273,31.50804 0,37.32294 1.87457,11.75501 9.09843,20.0476 20.18135,23.16706 4.55302,1.28153 13.99375,0.92319 18.92675,-0.7184 z m 117.05438,-1.65877 c 5.57317,-1.73456 9.04807,-4.21281 12.04446,-8.58994 3.38577,-4.94596 4.61845,-8.80073 5.05418,-15.80515 0.85408,-13.72922 -4.03591,-24.1652 -13.22843,-28.23149 -5.84672,-2.58628 -16.48085,-2.35179 -22.0081,0.48529 -2.2217,1.14038 -2.13755,1.79695 -0.98681,-7.69945 l 0.83752,-6.91165 16.40343,-0.1853 16.40343,-0.18531 v -7.93589 -7.93589 h -24.40785 -24.40785 l -2.43975,23.32683 c -1.34186,12.82976 -2.34747,23.44174 -2.23468,23.58216 0.11279,0.14043 4.00534,0.51939 8.65012,0.84214 l 8.44505,0.58681 2.16258,-2.50174 c 1.89577,-2.19308 2.63467,-2.54088 5.98903,-2.81905 7.39613,-0.61334 10.38114,2.88852 10.83806,12.71465 0.21178,4.55428 -0.007,6.22882 -1.15091,8.81516 -1.62148,3.66563 -3.30559,4.56958 -8.51337,4.56958 -3.03728,0 -3.77942,-0.29947 -5.83423,-2.35428 -1.29485,-1.29486 -2.55537,-3.35971 -2.80114,-4.58858 l -0.44686,-2.23429 -6.22107,0.44158 c -3.42159,0.24288 -7.72842,0.44159 -9.57072,0.44159 h -3.34965 v 2.67776 c 0,8.49314 6.29092,15.50768 17.26318,19.24889 6.06931,2.06946 17.27417,2.1865 23.51038,0.24557 z m 77.06133,-1.04994 c 7.4415,-3.65364 12.35082,-9.78283 14.52658,-18.13617 1.22764,-4.7132 1.47855,-35.66201 0.33865,-41.76983 -1.64865,-8.8338 -7.7922,-16.83517 -15.74244,-20.50301 -5.22308,-2.40966 -15.17139,-2.97485 -21.30932,-1.21063 -10.55751,3.03453 -17.25611,10.81297 -19.33204,22.44848 -1.24285,6.96606 -1.24285,31.11759 0,38.08366 2.00878,11.25912 8.61884,19.26669 18.57105,22.49736 1.92657,0.6254 5.6033,0.89069 10.86094,0.78368 7.21927,-0.14694 8.32802,-0.34816 12.08658,-2.19354 z"
       id="path1001" /><path
       style="opacity:0;fill:#800000;fill-opacity:1;stroke:#000000;stroke-width:0.00024785;stroke-linejoin:round;paint-order:stroke fill markers"
       d="M 231.30585,483.6997 C 187.23913,478.89124 146.36415,462.07135 111.89201,434.56138 102.08949,426.73863 83.789686,408.44733 76.03963,398.72566 49.723833,365.71513 33.489067,327.64957 27.54857,285.02895 26.015541,274.03009 25.447501,247.44984 26.497979,235.86867 31.605803,179.55664 55.401753,129.56503 95.668376,90.552382 131.60284,55.736975 175.26684,34.562475 225.58872,27.54857 c 10.99885,-1.533029 37.57911,-2.101069 49.16028,-1.050591 49.3136,4.473026 93.68185,23.214996 130.6237,55.177872 60.5586,52.396589 89.11532,130.975509 76.53884,210.610339 -15.00263,94.99739 -90.72435,172.01443 -185.82394,189.00272 -19.38539,3.46294 -46.0467,4.45512 -64.78175,2.41079 z M 120.88546,308.46855 c 11.50989,-2.12772 18.67886,-9.84671 20.58554,-22.16491 0.92,-5.94374 -0.0961,-15.24767 -2.19687,-20.11514 -2.11699,-4.90509 -7.09723,-9.86968 -11.58529,-11.54887 -4.96985,-1.85946 -13.07996,-1.88887 -18.92835,-0.0686 l -4.29142,1.33564 0.41033,-3.23634 c 0.22569,-1.77999 0.61694,-5.33576 0.86946,-7.90171 l 0.45913,-4.66537 h 16.49252 16.49253 v -7.60282 -7.60282 h -24.53637 c -13.49501,0 -24.536376,0.25486 -24.536376,0.56635 0,0.93784 -4.093666,40.33576 -4.510606,43.41061 l -0.386806,2.85261 8.794514,0.50724 8.794514,0.50725 1.37681,-1.89006 c 2.80276,-3.84757 8.95145,-4.90186 12.95761,-2.22179 2.98361,1.996 4.71537,6.78063 4.68474,12.94336 -0.0393,7.89509 -2.36421,11.46792 -7.95013,12.21715 -5.19354,0.69661 -10.61842,-3.34508 -10.62592,-7.91662 -0.003,-1.50812 -0.18438,-1.55943 -4.322367,-1.21944 -2.375881,0.19522 -6.730223,0.54143 -9.676316,0.76939 l -5.356532,0.41445 v 2.45271 c 0,11.26016 12.801739,20.67369 28.383635,20.87139 2.49614,0.0317 6.36704,-0.28045 8.60202,-0.69361 z m 78.18635,-0.99094 c 6.99637,-2.32823 13.24182,-8.49378 16.24083,-16.03305 1.48255,-3.727 1.60656,-5.17733 1.83885,-21.50491 0.2773,-19.49084 -0.26644,-24.66661 -3.25445,-30.97868 -5.21065,-11.00727 -17.35059,-16.97299 -30.42197,-14.94972 -12.84595,1.98837 -21.42931,10.63868 -23.51136,23.69476 -0.9273,5.8149 -0.9273,31.50804 0,37.32294 1.87457,11.75501 9.09843,20.0476 20.18135,23.16706 4.55302,1.28153 13.99375,0.92319 18.92675,-0.7184 z m 117.05438,-1.65877 c 5.57317,-1.73456 9.04807,-4.21281 12.04446,-8.58994 3.38577,-4.94596 4.61845,-8.80073 5.05418,-15.80515 0.85408,-13.72922 -4.03591,-24.1652 -13.22843,-28.23149 -5.84672,-2.58628 -16.48085,-2.35179 -22.0081,0.48529 -2.2217,1.14038 -2.13755,1.79695 -0.98681,-7.69945 l 0.83752,-6.91165 16.40343,-0.1853 16.40343,-0.18531 v -7.93589 -7.93589 h -24.40785 -24.40785 l -2.43975,23.32683 c -1.34186,12.82976 -2.34747,23.44174 -2.23468,23.58216 0.11279,0.14043 4.00534,0.51939 8.65012,0.84214 l 8.44505,0.58681 2.16258,-2.50174 c 1.89577,-2.19308 2.63467,-2.54088 5.98903,-2.81905 7.39613,-0.61334 10.38114,2.88852 10.83806,12.71465 0.21178,4.55428 -0.007,6.22882 -1.15091,8.81516 -1.62148,3.66563 -3.30559,4.56958 -8.51337,4.56958 -3.03728,0 -3.77942,-0.29947 -5.83423,-2.35428 -1.29485,-1.29486 -2.55537,-3.35971 -2.80114,-4.58858 l -0.44686,-2.23429 -6.22107,0.44158 c -3.42159,0.24288 -7.72842,0.44159 -9.57072,0.44159 h -3.34965 v 2.67776 c 0,8.49314 6.29092,15.50768 17.26318,19.24889 6.06931,2.06946 17.27417,2.1865 23.51038,0.24557 z m 77.06133,-1.04994 c 7.4415,-3.65364 12.35082,-9.78283 14.52658,-18.13617 1.22764,-4.7132 1.47855,-35.66201 0.33865,-41.76983 -1.64865,-8.8338 -7.7922,-16.83517 -15.74244,-20.50301 -5.22308,-2.40966 -15.17139,-2.97485 -21.30932,-1.21063 -10.55751,3.03453 -17.25611,10.81297 -19.33204,22.44848 -1.24285,6.96606 -1.24285,31.11759 0,38.08366 2.00878,11.25912 8.61884,19.26669 18.57105,22.49736 1.92657,0.6254 5.6033,0.89069 10.86094,0.78368 7.21927,-0.14694 8.32802,-0.34816 12.08658,-2.19354 z"
       id="path1003" /><path
       style="opacity:0;fill:#800000;fill-opacity:1;stroke:#000000;stroke-width:0.000247845;stroke-linejoin:round;paint-order:stroke fill markers"
       d="M 231.30585,483.6997 C 187.23913,478.89124 146.36415,462.07135 111.89201,434.56138 102.08949,426.73863 83.789686,408.44733 76.03963,398.72566 49.723833,365.71513 33.489067,327.64957 27.54857,285.02895 26.015541,274.03009 25.447501,247.44984 26.497979,235.86867 31.605803,179.55664 55.401753,129.56503 95.668376,90.552382 131.60284,55.736975 175.26684,34.562475 225.58872,27.54857 c 10.99885,-1.533029 37.57911,-2.101069 49.16028,-1.050591 49.3136,4.473026 93.68185,23.214996 130.6237,55.177872 60.5586,52.396589 89.11532,130.975509 76.53884,210.610339 -15.00263,94.99739 -90.72435,172.01443 -185.82394,189.00272 -19.38539,3.46294 -46.0467,4.45512 -64.78175,2.41079 z M 120.88546,308.46855 c 11.50989,-2.12772 18.67886,-9.84671 20.58554,-22.16491 0.92,-5.94374 -0.0961,-15.24767 -2.19687,-20.11514 -2.11699,-4.90509 -7.09723,-9.86968 -11.58529,-11.54887 -4.96985,-1.85946 -13.07996,-1.88887 -18.92835,-0.0686 l -4.29142,1.33564 0.41033,-3.23634 c 0.22569,-1.77999 0.61694,-5.33576 0.86946,-7.90171 l 0.45913,-4.66537 h 16.49252 16.49253 v -7.60282 -7.60282 h -24.53637 c -13.49501,0 -24.536376,0.25486 -24.536376,0.56635 0,0.93784 -4.093666,40.33576 -4.510606,43.41061 l -0.386806,2.85261 8.794514,0.50724 8.794514,0.50725 1.37681,-1.89006 c 2.80276,-3.84757 8.95145,-4.90186 12.95761,-2.22179 2.98361,1.996 4.71537,6.78063 4.68474,12.94336 -0.0393,7.89509 -2.36421,11.46792 -7.95013,12.21715 -5.19354,0.69661 -10.61842,-3.34508 -10.62592,-7.91662 -0.003,-1.50812 -0.18438,-1.55943 -4.322367,-1.21944 -2.375881,0.19522 -6.730223,0.54143 -9.676316,0.76939 l -5.356532,0.41445 v 2.45271 c 0,11.26016 12.801739,20.67369 28.383635,20.87139 2.49614,0.0317 6.36704,-0.28045 8.60202,-0.69361 z m 78.18635,-0.99094 c 6.99637,-2.32823 13.24182,-8.49378 16.24083,-16.03305 1.48255,-3.727 1.60656,-5.17733 1.83885,-21.50491 0.2773,-19.49084 -0.26644,-24.66661 -3.25445,-30.97868 -5.21065,-11.00727 -17.35059,-16.97299 -30.42197,-14.94972 -12.84595,1.98837 -21.42931,10.63868 -23.51136,23.69476 -0.9273,5.8149 -0.9273,31.50804 0,37.32294 1.87457,11.75501 9.09843,20.0476 20.18135,23.16706 4.55302,1.28153 13.99375,0.92319 18.92675,-0.7184 z m 117.05438,-1.65877 c 5.57317,-1.73456 9.04807,-4.21281 12.04446,-8.58994 3.38577,-4.94596 4.61845,-8.80073 5.05418,-15.80515 0.85408,-13.72922 -4.03591,-24.1652 -13.22843,-28.23149 -5.84672,-2.58628 -16.48085,-2.35179 -22.0081,0.48529 -2.2217,1.14038 -2.13755,1.79695 -0.98681,-7.69945 l 0.83752,-6.91165 16.40343,-0.1853 16.40343,-0.18531 v -7.93589 -7.93589 h -24.40785 -24.40785 l -2.43975,23.32683 c -1.34186,12.82976 -2.34747,23.44174 -2.23468,23.58216 0.11279,0.14043 4.00534,0.51939 8.65012,0.84214 l 8.44505,0.58681 2.16258,-2.50174 c 1.89577,-2.19308 2.63467,-2.54088 5.98903,-2.81905 7.39613,-0.61334 10.38114,2.88852 10.83806,12.71465 0.21178,4.55428 -0.007,6.22882 -1.15091,8.81516 -1.62148,3.66563 -3.30559,4.56958 -8.51337,4.56958 -3.03728,0 -3.77942,-0.29947 -5.83423,-2.35428 -1.29485,-1.29486 -2.55537,-3.35971 -2.80114,-4.58858 l -0.44686,-2.23429 -6.22107,0.44158 c -3.42159,0.24288 -7.72842,0.44159 -9.57072,0.44159 h -3.34965 v 2.67776 c 0,8.49314 6.29092,15.50768 17.26318,19.24889 6.06931,2.06946 17.27417,2.1865 23.51038,0.24557 z m 77.06133,-1.04994 c 7.4415,-3.65364 12.35082,-9.78283 14.52658,-18.13617 1.22764,-4.7132 1.47855,-35.66201 0.33865,-41.76983 -1.64865,-8.8338 -7.7922,-16.83517 -15.74244,-20.50301 -5.22308,-2.40966 -15.17139,-2.97485 -21.30932,-1.21063 -10.55751,3.03453 -17.25611,10.81297 -19.33204,22.44848 -1.24285,6.96606 -1.24285,31.11759 0,38.08366 2.00878,11.25912 8.61884,19.26669 18.57105,22.49736 1.92657,0.6254 5.6033,0.89069 10.86094,0.78368 7.21927,-0.14694 8.32802,-0.34816 12.08658,-2.19354 z"
       id="path1005" /><path
       style="opacity:0;fill:#800000;fill-opacity:1;stroke:#000000;stroke-width:0.000247845;stroke-linejoin:round;paint-order:stroke fill markers"
       d="M 231.30585,483.6997 C 187.23913,478.89124 146.36415,462.07135 111.89201,434.56138 102.08949,426.73863 83.789686,408.44733 76.03963,398.72566 49.723833,365.71513 33.489067,327.64957 27.54857,285.02895 26.015541,274.03009 25.447501,247.44984 26.497979,235.86867 31.605803,179.55664 55.401753,129.56503 95.668376,90.552382 131.60284,55.736975 175.26684,34.562475 225.58872,27.54857 c 10.99885,-1.533029 37.57911,-2.101069 49.16028,-1.050591 49.3136,4.473026 93.68185,23.214996 130.6237,55.177872 60.5586,52.396589 89.11532,130.975509 76.53884,210.610339 -15.00263,94.99739 -90.72435,172.01443 -185.82394,189.00272 -19.38539,3.46294 -46.0467,4.45512 -64.78175,2.41079 z M 120.88546,308.46855 c 11.50989,-2.12772 18.67886,-9.84671 20.58554,-22.16491 0.92,-5.94374 -0.0961,-15.24767 -2.19687,-20.11514 -2.11699,-4.90509 -7.09723,-9.86968 -11.58529,-11.54887 -4.96985,-1.85946 -13.07996,-1.88887 -18.92835,-0.0686 l -4.29142,1.33564 0.41033,-3.23634 c 0.22569,-1.77999 0.61694,-5.33576 0.86946,-7.90171 l 0.45913,-4.66537 h 16.49252 16.49253 v -7.60282 -7.60282 h -24.53637 c -13.49501,0 -24.536376,0.25486 -24.536376,0.56635 0,0.93784 -4.093666,40.33576 -4.510606,43.41061 l -0.386806,2.85261 8.794514,0.50724 8.794514,0.50725 1.37681,-1.89006 c 2.80276,-3.84757 8.95145,-4.90186 12.95761,-2.22179 2.98361,1.996 4.71537,6.78063 4.68474,12.94336 -0.0393,7.89509 -2.36421,11.46792 -7.95013,12.21715 -5.19354,0.69661 -10.61842,-3.34508 -10.62592,-7.91662 -0.003,-1.50812 -0.18438,-1.55943 -4.322367,-1.21944 -2.375881,0.19522 -6.730223,0.54143 -9.676316,0.76939 l -5.356532,0.41445 v 2.45271 c 0,11.26016 12.801739,20.67369 28.383635,20.87139 2.49614,0.0317 6.36704,-0.28045 8.60202,-0.69361 z m 78.18635,-0.99094 c 6.99637,-2.32823 13.24182,-8.49378 16.24083,-16.03305 1.48255,-3.727 1.60656,-5.17733 1.83885,-21.50491 0.2773,-19.49084 -0.26644,-24.66661 -3.25445,-30.97868 -5.21065,-11.00727 -17.35059,-16.97299 -30.42197,-14.94972 -12.84595,1.98837 -21.42931,10.63868 -23.51136,23.69476 -0.9273,5.8149 -0.9273,31.50804 0,37.32294 1.87457,11.75501 9.09843,20.0476 20.18135,23.16706 4.55302,1.28153 13.99375,0.92319 18.92675,-0.7184 z m 117.05438,-1.65877 c 5.57317,-1.73456 9.04807,-4.21281 12.04446,-8.58994 3.38577,-4.94596 4.61845,-8.80073 5.05418,-15.80515 0.85408,-13.72922 -4.03591,-24.1652 -13.22843,-28.23149 -5.84672,-2.58628 -16.48085,-2.35179 -22.0081,0.48529 -2.2217,1.14038 -2.13755,1.79695 -0.98681,-7.69945 l 0.83752,-6.91165 16.40343,-0.1853 16.40343,-0.18531 v -7.93589 -7.93589 h -24.40785 -24.40785 l -2.43975,23.32683 c -1.34186,12.82976 -2.34747,23.44174 -2.23468,23.58216 0.11279,0.14043 4.00534,0.51939 8.65012,0.84214 l 8.44505,0.58681 2.16258,-2.50174 c 1.89577,-2.19308 2.63467,-2.54088 5.98903,-2.81905 7.39613,-0.61334 10.38114,2.88852 10.83806,12.71465 0.21178,4.55428 -0.007,6.22882 -1.15091,8.81516 -1.62148,3.66563 -3.30559,4.56958 -8.51337,4.56958 -3.03728,0 -3.77942,-0.29947 -5.83423,-2.35428 -1.29485,-1.29486 -2.55537,-3.35971 -2.80114,-4.58858 l -0.44686,-2.23429 -6.22107,0.44158 c -3.42159,0.24288 -7.72842,0.44159 -9.57072,0.44159 h -3.34965 v 2.67776 c 0,8.49314 6.29092,15.50768 17.26318,19.24889 6.06931,2.06946 17.27417,2.1865 23.51038,0.24557 z m 77.06133,-1.04994 c 7.4415,-3.65364 12.35082,-9.78283 14.52658,-18.13617 1.22764,-4.7132 1.47855,-35.66201 0.33865,-41.76983 -1.64865,-8.8338 -7.7922,-16.83517 -15.74244,-20.50301 -5.22308,-2.40966 -15.17139,-2.97485 -21.30932,-1.21063 -10.55751,3.03453 -17.25611,10.81297 -19.33204,22.44848 -1.24285,6.96606 -1.24285,31.11759 0,38.08366 2.00878,11.25912 8.61884,19.26669 18.57105,22.49736 1.92657,0.6254 5.6033,0.89069 10.86094,0.78368 7.21927,-0.14694 8.32802,-0.34816 12.08658,-2.19354 z"
       id="path1007" /><rect
       style="opacity:0;fill:#800000;fill-opacity:1;stroke:#000000;stroke-width:0.00035859;stroke-linejoin:round;paint-order:stroke fill markers"
       id="rect1012"
       width="110.58647"
       height="93.998497"
       x="221.86411"
       y="111.9688" /><g
       sodipodi:type="inkscape:box3d"
       id="g1038"
       style="opacity:1;fill:#288db4;fill-opacity:1;stroke:#288db4;stroke-width:0.00035859;stroke-linejoin:round;stroke-opacity:1;paint-order:stroke fill markers"
       inkscape:perspectiveID="#perspective5079"
       inkscape:corner0="0.11899966 : 0.19932594 : 0 : 1"
       inkscape:corner7="0.095825115 : 0.19696515 : 0.25 : 1"><path
         sodipodi:type="inkscape:box3dside"
         id="path1050"
         style="fill:#288db4;fill-opacity:1;fill-rule:evenodd;stroke:#288db4;stroke-width:0.00072919;stroke-linejoin:round;stroke-opacity:1"
         inkscape:box3dsidetype="11"
         d="m 244.08362,301.01096 -9.43202,5.33019 3.19903,1.90672 9.37788,-5.36247 z"
         points="234.6516,306.34115 237.85063,308.24787 247.22851,302.8854 244.08362,301.01096 " /><path
         sodipodi:type="inkscape:box3dside"
         id="path1040"
         style="fill:#288db4;fill-opacity:1;fill-rule:evenodd;stroke:#288db4;stroke-width:0.00072919;stroke-linejoin:round;stroke-opacity:1"
         inkscape:box3dsidetype="6"
         d="m 283.15734,207.0244 3.84749,2.29321 -39.77632,93.56779 -3.14489,-1.87444 z"
         points="287.00483,209.31761 247.22851,302.8854 244.08362,301.01096 283.15734,207.0244 " /><path
         sodipodi:type="inkscape:box3dside"
         id="path1042"
         style="fill:#288db4;fill-opacity:1;fill-rule:evenodd;stroke:#288db4;stroke-width:0.00072919;stroke-linejoin:round;stroke-opacity:1"
         inkscape:box3dsidetype="5"
         d="m 283.15734,207.0244 -10.75751,4.55858 -37.74823,94.75817 9.43202,-5.33019 z"
         points="272.39983,211.58298 234.6516,306.34115 244.08362,301.01096 283.15734,207.0244 " /><path
         sodipodi:type="inkscape:box3dside"
         id="path1048"
         style="fill:#288db4;fill-opacity:1;fill-rule:evenodd;stroke:#288db4;stroke-width:0.00072919;stroke-linejoin:round;stroke-opacity:1"
         inkscape:box3dsidetype="13"
         d="m 287.00483,209.31761 -10.67614,4.60708 -38.47806,94.32318 9.37788,-5.36247 z"
         points="276.32869,213.92469 237.85063,308.24787 247.22851,302.8854 287.00483,209.31761 " /><path
         sodipodi:type="inkscape:box3dside"
         id="path1046"
         style="fill:#288db4;fill-opacity:1;fill-rule:evenodd;stroke:#288db4;stroke-width:0.00072919;stroke-linejoin:round;stroke-opacity:1"
         inkscape:box3dsidetype="14"
         d="m 272.39983,211.58298 3.92886,2.34171 -38.47806,94.32318 -3.19903,-1.90672 z"
         points="276.32869,213.92469 237.85063,308.24787 234.6516,306.34115 272.39983,211.58298 " /><path
         sodipodi:type="inkscape:box3dside"
         id="path1044"
         style="fill:#288db4;fill-opacity:1;fill-rule:evenodd;stroke:#288db4;stroke-width:0.00072919;stroke-linejoin:round;stroke-opacity:1"
         inkscape:box3dsidetype="3"
         d="m 283.15734,207.0244 -10.75751,4.55858 3.92886,2.34171 10.67614,-4.60708 z"
         points="272.39983,211.58298 276.32869,213.92469 287.00483,209.31761 283.15734,207.0244 " /></g><rect
       style="opacity:0;fill:#5a2626;fill-opacity:1;stroke:#000000;stroke-width:0.00035859;stroke-linejoin:round;paint-order:stroke fill markers"
       id="rect1066"
       width="89.160339"
       height="13.132143"
       x="-70.498878"
       y="35.940601" /><rect
       style="opacity:0;fill:#5a2626;fill-opacity:1;stroke:#000000;stroke-width:0.00035859;stroke-linejoin:round;paint-order:stroke fill markers"
       id="rect1081"
       width="136.15958"
       height="78.1017"
       x="176.93835"
       y="85.704514" /></g><path
     style="opacity:0;fill:#ffff00;stroke:#000000;stroke-width:0.00024785;stroke-linejoin:round;paint-order:stroke fill markers"
     d="m 323.79162,206.45954 c -7.93504,-2.38927 -12.24027,-10.11565 -11.40875,-20.47467 0.6145,-7.65543 4.30842,-12.89069 10.70648,-15.17393 3.22991,-1.15265 10.54361,-1.24811 14.09534,-0.18399 3.57723,1.07176 8.08956,5.03874 9.65718,8.49002 1.78355,3.92667 1.79177,14.79691 0.0142,18.70004 -1.61917,3.55522 -6.17372,7.65289 -9.54745,8.58972 -3.06296,0.85054 -10.76765,0.88064 -13.51694,0.0528 z m 10.48869,-10.19765 c 3.19055,-2.58375 3.41079,-11.72184 0.36778,-15.25955 -2.21626,-2.57655 -6.80773,-2.48564 -9.10079,0.1802 -2.8229,3.28182 -1.87691,14.53588 1.33032,15.8263 1.98912,0.80032 5.99064,0.39656 7.40269,-0.74695 z"
     id="path930" /><path
     style="opacity:0;fill:#ffff00;stroke:#000000;stroke-width:0.000247845;stroke-linejoin:round;paint-order:stroke fill markers"
     d="m 323.79162,206.45954 c -7.93504,-2.38927 -12.24027,-10.11565 -11.40875,-20.47467 0.6145,-7.65543 4.30842,-12.89069 10.70648,-15.17393 3.22991,-1.15265 10.54361,-1.24811 14.09534,-0.18399 3.57723,1.07176 8.08956,5.03874 9.65718,8.49002 1.78355,3.92667 1.79177,14.79691 0.0142,18.70004 -1.61917,3.55522 -6.17372,7.65289 -9.54745,8.58972 -3.06296,0.85054 -10.76765,0.88064 -13.51694,0.0528 z m 10.48869,-10.19765 c 3.19055,-2.58375 3.41079,-11.72184 0.36778,-15.25955 -2.21626,-2.57655 -6.80773,-2.48564 -9.10079,0.1802 -2.8229,3.28182 -1.87691,14.53588 1.33032,15.8263 1.98912,0.80032 5.99064,0.39656 7.40269,-0.74695 z"
     id="path932" /><path
     style="opacity:0;fill:#ffff00;stroke:#000000;stroke-width:0.000247845;stroke-linejoin:round;paint-order:stroke fill markers"
     d="m 323.79162,206.45954 c -7.93504,-2.38927 -12.24027,-10.11565 -11.40875,-20.47467 0.6145,-7.65543 4.30842,-12.89069 10.70648,-15.17393 3.22991,-1.15265 10.54361,-1.24811 14.09534,-0.18399 3.57723,1.07176 8.08956,5.03874 9.65718,8.49002 1.78355,3.92667 1.79177,14.79691 0.0142,18.70004 -1.61917,3.55522 -6.17372,7.65289 -9.54745,8.58972 -3.06296,0.85054 -10.76765,0.88064 -13.51694,0.0528 z m 10.48869,-10.19765 c 3.19055,-2.58375 3.41079,-11.72184 0.36778,-15.25955 -2.21626,-2.57655 -6.80773,-2.48564 -9.10079,0.1802 -2.8229,3.28182 -1.87691,14.53588 1.33032,15.8263 1.98912,0.80032 5.99064,0.39656 7.40269,-0.74695 z"
     id="path934" /><path
     style="opacity:0;fill:#d40000;stroke:#000000;stroke-width:0.00024785;stroke-linejoin:round;paint-order:stroke fill markers"
     d="m 340.74444,240.21091 -3.60478,-1.86618 19.64394,-31.43788 c 10.80417,-17.29084 19.94405,-31.53792 20.31084,-31.66018 0.84725,-0.28242 7.70295,3.16375 7.64368,3.84227 -0.0887,1.01555 -39.02687,62.61048 -39.69775,62.7965 -0.38014,0.1054 -2.31331,-0.64814 -4.29593,-1.67453 z"
     id="path936" /><path
     style="opacity:0;fill:#d40000;stroke:#000000;stroke-width:0.000247845;stroke-linejoin:round;paint-order:stroke fill markers"
     d="m 323.79162,206.45954 c -7.93504,-2.38927 -12.24027,-10.11565 -11.40875,-20.47467 0.6145,-7.65543 4.30842,-12.89069 10.70648,-15.17393 3.22991,-1.15265 10.54361,-1.24811 14.09534,-0.18399 3.57723,1.07176 8.08956,5.03874 9.65718,8.49002 1.78355,3.92667 1.79177,14.79691 0.0142,18.70004 -1.61917,3.55522 -6.17372,7.65289 -9.54745,8.58972 -3.06296,0.85054 -10.76765,0.88064 -13.51694,0.0528 z m 10.48869,-10.19765 c 3.19055,-2.58375 3.41079,-11.72184 0.36778,-15.25955 -2.21626,-2.57655 -6.80773,-2.48564 -9.10079,0.1802 -2.8229,3.28182 -1.87691,14.53588 1.33032,15.8263 1.98912,0.80032 5.99064,0.39656 7.40269,-0.74695 z"
     id="path938" /><path
     style="opacity:0;fill:#d40000;stroke:#000000;stroke-width:0.000247845;stroke-linejoin:round;paint-order:stroke fill markers"
     d="m 374.41491,248.84109 c -1.3305,-0.42172 -3.83455,-2.1794 -5.56457,-3.90597 -4.00542,-3.99744 -5.08694,-7.59186 -4.67067,-15.52288 0.26016,-4.95671 0.61627,-6.34211 2.35173,-9.14915 1.251,-2.02345 3.35891,-4.12019 5.4285,-5.39971 3.15033,-1.9477 3.83932,-2.09164 10.00362,-2.08986 5.45369,0.002 7.10745,0.26376 9.38494,1.48786 5.73689,3.08346 8.06621,7.26955 8.5027,15.28047 0.19357,3.55258 -0.0312,6.93457 -0.59463,8.94694 -1.18279,4.22449 -6.15021,9.44799 -9.98157,10.49614 -3.46717,0.94851 -11.66405,0.86917 -14.86005,-0.14384 z m 12.13608,-9.74906 c 1.11622,-0.81585 1.38117,-2.00695 1.57692,-7.08889 0.22133,-5.74621 0.13111,-6.22067 -1.52212,-8.00453 -2.37938,-2.56739 -6.65079,-2.66104 -9.11206,-0.19977 -1.51487,1.51487 -1.69649,2.28103 -1.69649,7.15631 0,4.83749 0.19319,5.66827 1.69491,7.28866 1.33312,1.43845 2.33766,1.82884 4.70605,1.82884 1.65613,0 3.61489,-0.44128 4.35279,-0.98062 z"
     id="path940" /><path
     style="opacity:0;fill:#232323;fill-opacity:1;stroke:#000000;stroke-width:0.00024785;stroke-linejoin:round;paint-order:stroke fill markers"
     d="M 226.68818,479.08204 C 182.62147,474.27358 141.74649,457.45369 107.27434,429.94372 97.471816,422.12096 79.172018,403.82967 71.421961,394.108 45.106165,361.09747 28.871399,323.0319 22.930901,280.41128 21.397872,269.41243 20.829832,242.83218 21.88031,231.25101 26.988134,174.93897 50.784085,124.94737 91.050707,85.934713 126.98518,51.119305 170.64918,29.944805 220.97106,22.9309 c 10.99885,-1.533029 37.5791,-2.101069 49.16027,-1.050591 49.31361,4.473026 93.68185,23.214996 130.6237,55.177872 60.55861,52.396599 89.11532,130.975519 76.53885,210.610339 -15.00263,94.99739 -90.72435,172.01444 -185.82395,189.00272 -19.38539,3.46295 -46.0467,4.45512 -64.78175,2.4108 z m -53.05366,-77.08567 c 11.50989,-2.12771 18.67887,-9.84671 20.58554,-22.1649 0.92001,-5.94374 -0.0961,-15.24767 -2.19687,-20.11514 -2.11699,-4.90509 -7.09723,-9.86968 -11.58528,-11.54887 -4.96985,-1.85946 -13.07996,-1.88888 -18.92836,-0.0686 l -4.29141,1.33564 0.41033,-3.23634 c 0.22568,-1.78 0.61694,-5.33576 0.86946,-7.90172 l 0.45913,-4.66536 h 16.49252 16.49253 v -7.60282 -7.60282 h -24.53638 c -13.495,0 -24.53637,0.25486 -24.53637,0.56635 0,0.93784 -4.09366,40.33576 -4.51061,43.4106 l -0.3868,2.85262 8.79451,0.50724 8.79452,0.50725 1.37681,-1.89006 c 2.80276,-3.84757 8.95144,-4.90187 12.95761,-2.2218 2.98361,1.99601 4.71537,6.78064 4.68474,12.94336 -0.0393,7.8951 -2.36421,11.46793 -7.95013,12.21716 -5.19355,0.69661 -10.61842,-3.34508 -10.62592,-7.91662 -0.003,-1.50812 -0.18438,-1.55944 -4.32237,-1.21944 -2.37588,0.19521 -6.73022,0.54143 -9.67632,0.76939 l -5.35653,0.41445 v 2.45271 c 0,11.26016 12.80174,20.67369 28.38364,20.87139 2.49613,0.0317 6.36704,-0.28045 8.60201,-0.69361 z m 78.18635,-0.99093 c 6.99637,-2.32823 13.24183,-8.49378 16.24084,-16.03305 1.48255,-3.727 1.60656,-5.17734 1.83885,-21.50492 0.2773,-19.49083 -0.26644,-24.66661 -3.25446,-30.97867 -5.21065,-11.00728 -17.35058,-16.97299 -30.42196,-14.94973 -12.84596,1.98838 -21.42931,10.63869 -23.51136,23.69477 -0.92731,5.8149 -0.92731,31.50804 0,37.32294 1.87457,11.75501 9.09842,20.0476 20.18134,23.16706 4.55303,1.28152 13.99375,0.92318 18.92675,-0.7184 z M 378.55678,252.70659 c 6.68158,-3.02915 9.1091,-7.1505 9.53272,-16.18431 0.33917,-7.23261 -0.45137,-10.80107 -3.24808,-14.66181 -3.20654,-4.42651 -7.34673,-6.07315 -15.26979,-6.07315 -7.9414,0 -11.88647,1.579 -15.19902,6.08336 -2.88753,3.92643 -3.66156,7.34351 -3.31886,14.6516 0.57662,12.29645 6.15261,17.59436 18.51788,17.59436 4.43626,0 6.63654,-0.34529 8.98515,-1.41005 z M 351.25574,218.4388 c 9.88367,-15.82446 18.39436,-29.58172 18.91265,-30.57167 0.83904,-1.60263 0.82826,-1.68628 -0.0984,-0.76318 -0.57238,0.57021 -8.8833,13.63324 -18.46871,29.02895 -9.5854,15.39571 -17.82009,28.40668 -18.29931,28.91325 -0.72159,0.76279 -1.53609,0.58465 -4.74005,-1.03675 l -3.86875,-1.9578 17.25546,-27.61675 c 9.49051,-15.18921 17.25547,-27.93266 17.25547,-28.31878 0,-0.38612 -0.42458,-0.0885 -0.94351,0.6613 -2.60859,3.76925 -34.30592,55.04221 -34.30592,55.49255 0,0.44919 8.01379,4.82975 8.98515,4.91153 0.19007,0.016 8.43222,-12.91819 18.31588,-28.74265 z m -13.37988,-11.40203 c 3.57723,-1.07176 8.08956,-5.03873 9.65717,-8.49002 0.91332,-2.01076 1.24731,-4.26868 1.18144,-7.98697 l -0.0918,-5.18374 -0.44898,5.52932 c -0.5161,6.35583 -1.59647,8.78021 -5.47357,12.28294 -3.49173,3.15456 -7.30466,4.19301 -13.98795,3.80957 -4.0607,-0.23297 -5.96829,-0.71449 -8.34249,-2.10587 -5.84227,-3.42379 -8.68874,-10.16226 -7.98678,-18.90713 0.83248,-10.37096 7.0759,-16.05659 17.71214,-16.12972 5.74371,-0.0395 9.12714,1.02626 12.54453,3.95142 3.06481,2.62337 4.51266,5.00559 5.44266,8.95513 0.53482,2.27127 0.62472,2.36201 0.68504,0.69143 0.161,-4.45911 -3.5241,-9.80332 -8.57015,-12.42862 -3.83515,-1.99531 -12.76383,-2.46864 -17.41646,-0.92329 -3.6756,1.22084 -7.49556,4.6753 -9.63017,8.70874 -1.94125,3.6681 -1.79576,15.86025 0.23507,19.69822 1.96325,3.71026 5.50412,6.99988 8.85451,8.22623 3.35628,1.2285 11.98755,1.39541 15.63582,0.30236 z m -3.59554,-10.77488 c 3.19053,-2.58375 3.41077,-11.72184 0.36777,-15.25955 -2.21625,-2.57655 -6.80773,-2.48564 -9.10079,0.18019 -2.8229,3.28182 -1.87691,14.53588 1.33032,15.82631 1.98912,0.80032 5.99064,0.39656 7.4027,-0.74695 z m 28.2275,-14.69259 c 0.86666,-1.51764 1.95525,-2.7537 2.41908,-2.74681 0.46382,0.007 2.52727,0.94072 4.58544,2.07517 2.05817,1.13447 3.8984,1.9064 4.0894,1.7154 0.48641,-0.48641 0.30521,-0.60693 -4.6403,-3.08631 -4.89811,-2.45561 -4.83457,-2.4741 -7.63359,2.22067 -0.84991,1.42553 -1.28665,2.58947 -0.97054,2.58655 0.31611,-0.003 1.28384,-1.24703 2.15051,-2.76467 z"
     id="path942" /><path
     style="opacity:0;fill:#232323;fill-opacity:1;stroke:#000000;stroke-width:0.000247845;stroke-linejoin:round;paint-order:stroke fill markers"
     d="m 323.79162,206.45954 c -7.93504,-2.38927 -12.24027,-10.11565 -11.40875,-20.47467 0.6145,-7.65543 4.30842,-12.89069 10.70648,-15.17393 3.22991,-1.15265 10.54361,-1.24811 14.09534,-0.18399 3.57723,1.07176 8.08956,5.03874 9.65718,8.49002 1.78355,3.92667 1.79177,14.79691 0.0142,18.70004 -1.61917,3.55522 -6.17372,7.65289 -9.54745,8.58972 -3.06296,0.85054 -10.76765,0.88064 -13.51694,0.0528 z m 10.48869,-10.19765 c 3.19055,-2.58375 3.41079,-11.72184 0.36778,-15.25955 -2.21626,-2.57655 -6.80773,-2.48564 -9.10079,0.1802 -2.8229,3.28182 -1.87691,14.53588 1.33032,15.8263 1.98912,0.80032 5.99064,0.39656 7.40269,-0.74695 z"
     id="path944" /><path
     style="opacity:0;fill:#232323;fill-opacity:1;stroke:#000000;stroke-width:0.000247845;stroke-linejoin:round;paint-order:stroke fill markers"
     d="M 226.68818,479.08204 C 182.62147,474.27358 141.74649,457.45369 107.27434,429.94372 97.471816,422.12096 79.172018,403.82967 71.421961,394.108 45.106165,361.09747 28.871399,323.0319 22.930901,280.41128 21.397872,269.41243 20.829832,242.83218 21.88031,231.25101 26.988134,174.93897 50.784085,124.94737 91.050707,85.934713 126.98518,51.119305 170.64918,29.944805 220.97106,22.9309 c 10.99885,-1.533029 37.5791,-2.101069 49.16027,-1.050591 49.31361,4.473026 93.68185,23.214996 130.6237,55.177872 60.55861,52.396599 89.11532,130.975519 76.53885,210.610339 -15.00263,94.99739 -90.72435,172.01444 -185.82395,189.00272 -19.38539,3.46295 -46.0467,4.45512 -64.78175,2.4108 z m -53.05366,-77.08567 c 11.50989,-2.12771 18.67887,-9.84671 20.58554,-22.1649 0.92001,-5.94374 -0.0961,-15.24767 -2.19687,-20.11514 -2.11699,-4.90509 -7.09723,-9.86968 -11.58528,-11.54887 -4.96985,-1.85946 -13.07996,-1.88888 -18.92836,-0.0686 l -4.29141,1.33564 0.41033,-3.23634 c 0.22568,-1.78 0.61694,-5.33576 0.86946,-7.90172 l 0.45913,-4.66536 h 16.49252 16.49253 v -7.60282 -7.60282 h -24.53638 c -13.495,0 -24.53637,0.25486 -24.53637,0.56635 0,0.93784 -4.09366,40.33576 -4.51061,43.4106 l -0.3868,2.85262 8.79451,0.50724 8.79452,0.50725 1.37681,-1.89006 c 2.80276,-3.84757 8.95144,-4.90187 12.95761,-2.2218 2.98361,1.99601 4.71537,6.78064 4.68474,12.94336 -0.0393,7.8951 -2.36421,11.46793 -7.95013,12.21716 -5.19355,0.69661 -10.61842,-3.34508 -10.62592,-7.91662 -0.003,-1.50812 -0.18438,-1.55944 -4.32237,-1.21944 -2.37588,0.19521 -6.73022,0.54143 -9.67632,0.76939 l -5.35653,0.41445 v 2.45271 c 0,11.26016 12.80174,20.67369 28.38364,20.87139 2.49613,0.0317 6.36704,-0.28045 8.60201,-0.69361 z m 78.18635,-0.99093 c 6.99637,-2.32823 13.24183,-8.49378 16.24084,-16.03305 1.48255,-3.727 1.60656,-5.17734 1.83885,-21.50492 0.2773,-19.49083 -0.26644,-24.66661 -3.25446,-30.97867 -5.21065,-11.00728 -17.35058,-16.97299 -30.42196,-14.94973 -12.84596,1.98838 -21.42931,10.63869 -23.51136,23.69477 -0.92731,5.8149 -0.92731,31.50804 0,37.32294 1.87457,11.75501 9.09842,20.0476 20.18134,23.16706 4.55303,1.28152 13.99375,0.92318 18.92675,-0.7184 z M 378.55678,252.70659 c 6.68158,-3.02915 9.1091,-7.1505 9.53272,-16.18431 0.33917,-7.23261 -0.45137,-10.80107 -3.24808,-14.66181 -3.20654,-4.42651 -7.34673,-6.07315 -15.26979,-6.07315 -7.9414,0 -11.88647,1.579 -15.19902,6.08336 -2.88753,3.92643 -3.66156,7.34351 -3.31886,14.6516 0.57662,12.29645 6.15261,17.59436 18.51788,17.59436 4.43626,0 6.63654,-0.34529 8.98515,-1.41005 z M 353.5731,214.69257 c 11.1582,-17.88327 20.17791,-32.61383 20.04379,-32.73458 -0.13412,-0.12074 -2.22907,-1.2148 -4.65545,-2.43124 -3.63935,-1.82455 -4.56035,-2.05062 -5.26135,-1.29146 -1.20919,1.30952 -39.74538,63.39078 -39.74538,64.02927 0,0.45378 8.01371,4.83777 8.98515,4.91542 0.19007,0.0152 9.47503,-14.60414 20.63324,-32.48741 z M 319.21439,172.4785 c 3.57723,-1.07176 26.75103,29.51954 28.31864,26.06825 1.68409,-3.70768 1.82583,-15.76643 0.23022,-19.58619 -2.54556,-6.09388 -7.71315,-9.23068 -15.952,-9.68309 -9.2389,-0.50733 -14.8697,2.36905 -18.66079,9.53249 -1.94125,3.6681 -1.79576,15.86025 0.23507,19.69822 1.96325,3.71026 5.50412,6.99988 8.85451,8.22623 3.35628,1.2285 -6.67392,-33.16286 -3.02565,-34.25591 z"
     id="path946"
     sodipodi:nodetypes="ssssssssssssssssscsscccccssscccsssscsscssssssssssssssssssssssssssssssssssss" /></svg>
