<?xml version="1.0" encoding="UTF-8" standalone="no"?>
<svg
   xmlns:dc="http://purl.org/dc/elements/1.1/"
   xmlns:cc="http://creativecommons.org/ns#"
   xmlns:rdf="http://www.w3.org/1999/02/22-rdf-syntax-ns#"
   xmlns:svg="http://www.w3.org/2000/svg"
   xmlns="http://www.w3.org/2000/svg"
   xmlns:sodipodi="http://sodipodi.sourceforge.net/DTD/sodipodi-0.dtd"
   xmlns:inkscape="http://www.inkscape.org/namespaces/inkscape"
   viewBox="0 0 24 24"
   version="1.1"
   id="svg5688"
   sodipodi:docname="change-help.svg"
   inkscape:version="1.0.2 (e86c8708, 2021-01-15)">
  <metadata
     id="metadata5694">
    <rdf:RDF>
      <cc:Work
         rdf:about="">
        <dc:format>image/svg+xml</dc:format>
        <dc:type
           rdf:resource="http://purl.org/dc/dcmitype/StillImage" />
      </cc:Work>
    </rdf:RDF>
  </metadata>
  <defs
     id="defs5692" />
  <sodipodi:namedview
     pagecolor="#ffffff"
     bordercolor="#666666"
     borderopacity="1"
     objecttolerance="10"
     gridtolerance="10"
     guidetolerance="10"
     inkscape:pageopacity="0"
     inkscape:pageshadow="2"
     inkscape:window-width="1680"
     inkscape:window-height="997"
     id="namedview5690"
     showgrid="false"
     inkscape:zoom="18.663212"
     inkscape:cx="18.057134"
     inkscape:cy="11.556798"
     inkscape:window-x="0"
     inkscape:window-y="25"
     inkscape:window-maximized="1"
     inkscape:current-layer="svg5688"
     inkscape:document-rotation="0" />
  <title
     id="title5682" />
  <path
     d="M21.71,5.29l-3-3a1,1,0,0,0-1.09-.21A1,1,0,0,0,17,3V5H5A3,3,0,0,0,2,8v3a1,1,0,0,0,2,0V8A1,1,0,0,1,5,7H17V9a1,1,0,0,0,.62.92A.84.84,0,0,0,18,10a1,1,0,0,0,.71-.29l3-3A1,1,0,0,0,21.71,5.29Z"
     fill="#464646"
     id="path5684"
     style="fill:#288db4;fill-opacity:1" />
  <path
     d="M21,12a1,1,0,0,0-1,1v3a1,1,0,0,1-1,1H7V15a1,1,0,0,0-.62-.92,1,1,0,0,0-1.09.21l-3,3a1,1,0,0,0,0,1.42l3,3A1,1,0,0,0,6,22a.84.84,0,0,0,.38-.08A1,1,0,0,0,7,21V19H19a3,3,0,0,0,3-3V13A1,1,0,0,0,21,12Z"
     fill="#464646"
     id="path5686"
     style="fill:#288db4;fill-opacity:1" />
</svg>
