<?xml version="1.0" encoding="UTF-8" standalone="no"?>
<svg
   xmlns:dc="http://purl.org/dc/elements/1.1/"
   xmlns:cc="http://creativecommons.org/ns#"
   xmlns:rdf="http://www.w3.org/1999/02/22-rdf-syntax-ns#"
   xmlns:svg="http://www.w3.org/2000/svg"
   xmlns="http://www.w3.org/2000/svg"
   xmlns:sodipodi="http://sodipodi.sourceforge.net/DTD/sodipodi-0.dtd"
   xmlns:inkscape="http://www.inkscape.org/namespaces/inkscape"
   width="16"
   height="16"
   fill="currentColor"
   class="bi bi-controller"
   viewBox="0 0 16 16"
   version="1.1"
   id="svg6657"
   sodipodi:docname="controller.svg"
   inkscape:version="1.0.2 (e86c8708, 2021-01-15)">
  <metadata
     id="metadata6663">
    <rdf:RDF>
      <cc:Work
         rdf:about="">
        <dc:format>image/svg+xml</dc:format>
        <dc:type
           rdf:resource="http://purl.org/dc/dcmitype/StillImage" />
      </cc:Work>
    </rdf:RDF>
  </metadata>
  <defs
     id="defs6661" />
  <sodipodi:namedview
     pagecolor="#ffffff"
     bordercolor="#666666"
     borderopacity="1"
     objecttolerance="10"
     gridtolerance="10"
     guidetolerance="10"
     inkscape:pageopacity="0"
     inkscape:pageshadow="2"
     inkscape:window-width="1472"
     inkscape:window-height="985"
     id="namedview6659"
     showgrid="false"
     inkscape:zoom="99.52707"
     inkscape:cx="8.643497"
     inkscape:cy="8.6156304"
     inkscape:window-x="0"
     inkscape:window-y="25"
     inkscape:window-maximized="0"
     inkscape:current-layer="svg6657"
     inkscape:document-rotation="0" />
  <path
     d="M11.5 6.027a.5.5 0 1 1-1 0 .5.5 0 0 1 1 0zm-1.5 1.5a.5.5 0 1 0 0-1 .5.5 0 0 0 0 1zm2.5-.5a.5.5 0 1 1-1 0 .5.5 0 0 1 1 0zm-1.5 1.5a.5.5 0 1 0 0-1 .5.5 0 0 0 0 1zm-6.5-3h1v1h1v1h-1v1h-1v-1h-1v-1h1v-1z"
     id="path6653"
     style="fill:#f9f9f9;fill-opacity:1" />
  <path
     d="M 3.051,3.26 A 0.50000001,0.5 0 0 1 3.405,2.647 L 5.337,2.129 a 0.50000001,0.5 0 0 1 0.6200001,0.39 C 6.612,2.44 7.307,2.402 8,2.402 c 0.72,0 1.4430001,0.041 2.12,0.126 a 0.50000001,0.5 0 0 1 0.622,-0.399 l 1.932,0.518 a 0.50000001,0.5 0 0 1 0.306,0.729 c 0.14,0.09 0.266,0.19 0.373,0.297 0.408,0.408 0.78,1.05 1.095,1.772 0.32,0.733 0.599,1.591 0.805,2.466 0.206,0.875 0.34,1.78 0.364,2.606 0.024,0.816 -0.059,1.602 -0.328,2.21 a 1.42,1.42 0 0 1 -1.445,0.83 C 13.208,13.49 12.729,13.163 12.331,12.784 12.086,12.552 11.835,12.258 11.592,11.976 11.466,11.828 11.342,11.684 11.224,11.553 10.496,10.749 9.627,10.026 8,10.026 c -1.627,0 -2.496,0.723 -3.2239999,1.527 -0.119,0.131 -0.2420001,0.275 -0.368,0.423 -0.243,0.282 -0.494,0.575 -0.7390001,0.808 -0.3979999,0.38 -0.877,0.706 -1.5129999,0.773 A 1.42,1.42 0 0 1 0.711,12.727 C 0.441,12.119 0.359,11.332 0.382,10.517 0.406,9.691 0.54200001,8.787 0.747,7.911 0.95300001,7.036 1.233,6.178 1.552,5.445 1.867,4.723 2.239,4.081 2.6460001,3.673 a 2.34,2.34 0 0 1 0.433,-0.335 A 0.50400001,0.504 0 0 1 3.051,3.259 Z M 5.087,3.672 C 4.2100001,3.857 3.618,4.115 3.354,4.38 3.078,4.656 2.767,5.163 2.469,5.845 A 13.748,13.748 0 0 0 1.721,8.14 12.351,12.351 0 0 0 1.382,10.546 c -0.022,0.755 0.062,1.368 0.243,1.776 a 0.42,0.42 0 0 0 0.426,0.24 C 2.378,12.528 2.661,12.363 2.9800001,12.06 3.1920001,11.858 3.38,11.637 3.595,11.386 3.728,11.23 3.8710001,11.063 4.035,10.882 4.861,9.969 5.978,9.027 8,9.027 c 2.022,0 3.139,0.942 3.965,1.855 0.164,0.181 0.307,0.348 0.44,0.504 0.214,0.251 0.403,0.472 0.615,0.674 0.318,0.303 0.601,0.468 0.929,0.503 a 0.42,0.42 0 0 0 0.426,-0.241 c 0.18,-0.408 0.265,-1.02 0.243,-1.776 A 12.354,12.354 0 0 0 14.279,8.14 13.753,13.753 0 0 0 13.531,5.845 C 13.233,5.163 12.921,4.655 12.646,4.38 12.382,4.115 11.79,3.857 10.913,3.672 10.063,3.493 9.036,3.402 8,3.402 c -1.036,0 -2.063,0.091 -2.913,0.27 z"
     id="path6655"
     style="stroke-width:1;fill:#f2f2f2;fill-opacity:1;fill-rule:nonzero" />
</svg>
