<?xml version="1.0" encoding="UTF-8" standalone="no"?>
<svg
   xmlns:osb="http://www.openswatchbook.org/uri/2009/osb"
   xmlns:dc="http://purl.org/dc/elements/1.1/"
   xmlns:cc="http://creativecommons.org/ns#"
   xmlns:rdf="http://www.w3.org/1999/02/22-rdf-syntax-ns#"
   xmlns:svg="http://www.w3.org/2000/svg"
   xmlns="http://www.w3.org/2000/svg"
   xmlns:xlink="http://www.w3.org/1999/xlink"
   xmlns:sodipodi="http://sodipodi.sourceforge.net/DTD/sodipodi-0.dtd"
   xmlns:inkscape="http://www.inkscape.org/namespaces/inkscape"
   viewBox="0 0 32 32"
   version="1.1"
   id="svg2779"
   sodipodi:docname="icon_logout.svg"
   inkscape:version="1.0.2 (e86c8708, 2021-01-15)">
  <metadata
     id="metadata2783">
    <rdf:RDF>
      <cc:Work
         rdf:about="">
        <dc:format>image/svg+xml</dc:format>
        <dc:type
           rdf:resource="http://purl.org/dc/dcmitype/StillImage" />
      </cc:Work>
    </rdf:RDF>
  </metadata>
  <sodipodi:namedview
     pagecolor="#ffffff"
     bordercolor="#666666"
     borderopacity="1"
     objecttolerance="10"
     gridtolerance="10"
     guidetolerance="10"
     inkscape:pageopacity="0"
     inkscape:pageshadow="2"
     inkscape:window-width="1680"
     inkscape:window-height="997"
     id="namedview2781"
     showgrid="false"
     inkscape:zoom="38.595772"
     inkscape:cx="9.6812374"
     inkscape:cy="22.312697"
     inkscape:window-x="0"
     inkscape:window-y="25"
     inkscape:window-maximized="1"
     inkscape:current-layer="logout"
     inkscape:document-rotation="0" />
  <defs
     id="defs2762">
    <linearGradient
       id="linearGradient6027"
       osb:paint="solid">
      <stop
         style="stop-color:#000000;stop-opacity:1;"
         offset="0"
         id="stop6025" />
    </linearGradient>
    <linearGradient
       id="linearGradient5977"
       osb:paint="solid">
      <stop
         style="stop-color:#ffcab1;stop-opacity:1;"
         offset="0"
         id="stop5975" />
    </linearGradient>
    <pattern
       inkscape:collect="always"
       patternUnits="userSpaceOnUse"
       width="2"
       height="1"
       patternTransform="translate(0,0) scale(10,10)"
       id="Strips1_1"
       inkscape:stockid="Stripes 1:1">
      <rect
         style="fill:black;stroke:none"
         x="0"
         y="-0.5"
         width="1"
         height="2"
         id="rect5013" />
    </pattern>
    <linearGradient
       id="linearGradient4047"
       osb:paint="gradient">
      <stop
         style="stop-color:#3aabe3;stop-opacity:1;"
         offset="0"
         id="stop4043" />
      <stop
         style="stop-color:#3aabe3;stop-opacity:0;"
         offset="1"
         id="stop4045" />
    </linearGradient>
    <style
       id="style2760">.cls-1{fill:none;stroke:#000;stroke-linecap:round;stroke-linejoin:round;stroke-width:2px;}</style>
    <linearGradient
       inkscape:collect="always"
       xlink:href="#linearGradient6027"
       id="linearGradient6029"
       x1="23.978307"
       y1="7.0898405"
       x2="25.873339"
       y2="7.0898405"
       gradientUnits="userSpaceOnUse" />
  </defs>
  <title
     id="title2764" />
  <g
     id="logout">
    <line
       class="cls-1"
       x1="15.92"
       x2="28.92"
       y1="16"
       y2="16"
       id="line2766"
       style="opacity:1;fill:#e6e6e6;fill-opacity:1" />
    <path
       d="m 23.93,25 v 3 h -16 V 4 h 16 v 3 h 2 V 3 a 1,1 0 0 0 -1,-1 h -18 a 1,1 0 0 0 -1,1 v 26 a 1,1 0 0 0 1,1 h 18 a 1,1 0 0 0 1,-1 v -4 z"
       id="path2768"
       style="fill:#e6e6e6;fill-opacity:1" />
    <line
       class="cls-1"
       x1="28.92"
       x2="24.92"
       y1="16"
       y2="20"
       id="line2770"
       style="fill:#e6e6e6;fill-opacity:1" />
    <line
       class="cls-1"
       x1="28.92"
       x2="24.92"
       y1="16"
       y2="12"
       id="line2772"
       style="fill:#e6e6e6;fill-opacity:1" />
    <path
       style="opacity:1;fill:#e6e6e6;fill-opacity:1;stroke:#00b8b1;stroke-width:0;stroke-opacity:0.608696"
       d="m 24.528512,20.879551 c -0.50046,-0.233037 -0.713152,-0.787608 -0.490405,-1.278676 0.06346,-0.139898 0.425095,-0.532218 1.304089,-1.414729 l 1.216281,-1.22115 h -5.430902 -5.430901 l -0.194189,-0.09128 c -0.350546,-0.164776 -0.539233,-0.474186 -0.539233,-0.884238 0,-0.405795 0.257956,-0.771286 0.640894,-0.908064 0.127075,-0.04539 1.222372,-0.0569 5.557712,-0.05842 l 5.399445,-0.0019 -1.218248,-1.220339 c -1.296609,-1.298834 -1.391854,-1.422243 -1.393704,-1.805828 -0.0013,-0.266701 0.178063,-0.618321 0.395855,-0.776089 0.317006,-0.229638 0.76459,-0.246961 1.092233,-0.04227 0.07198,0.04497 1.085437,1.040162 2.252115,2.211535 1.963991,1.971894 2.125327,2.145024 2.176478,2.335575 0.06143,0.228827 0.03602,0.529995 -0.06014,0.712891 -0.03414,0.06493 -1.016024,1.070562 -2.181972,2.234744 -2.236219,2.232831 -2.326314,2.309815 -2.703563,2.310107 -0.09503,8.6e-5 -0.271364,-0.04577 -0.391842,-0.101867 z"
       id="path4025" />
    <path
       style="opacity:1;fill:#3aabe3;fill-opacity:1;stroke:#00b8b1;stroke-width:0;stroke-opacity:0.608696"
       d=""
       id="path4031" />
    <path
       style="opacity:1;fill:#d40000;fill-opacity:1;stroke:none;stroke-width:0;stroke-opacity:0.608696"
       d="m 24.698341,20.930956 c -0.19119,-0.05842 -0.303437,-0.125891 -0.449602,-0.270259 -0.204527,-0.202014 -0.282505,-0.388051 -0.281588,-0.671809 6.78e-4,-0.210202 0.04625,-0.350301 0.164937,-0.507085 0.148266,-0.195855 0.491583,-0.555232 1.474026,-1.542976 0.523408,-0.526234 0.951651,-0.962037 0.951651,-0.968451 0,-0.0064 -2.442431,-0.01163 -5.427626,-0.0116 l -5.427626,6.9e-5 -0.177165,-0.08797 c -0.219179,-0.108833 -0.36298,-0.242163 -0.447821,-0.415223 -0.153174,-0.312442 -0.134894,-0.692239 0.04696,-0.975631 0.07964,-0.124109 0.256341,-0.282456 0.386938,-0.346749 0.105461,-0.05192 0.129226,-0.05634 0.38418,-0.07142 0.150838,-0.0089 2.587694,-0.02026 5.476428,-0.02546 l 5.204663,-0.0094 -0.977915,-0.983991 c -1.52293,-1.532393 -1.615827,-1.644929 -1.636185,-1.982084 -0.01036,-0.171651 0.02299,-0.309879 0.119679,-0.496056 0.156397,-0.301128 0.390577,-0.465719 0.729742,-0.512892 0.164265,-0.02285 0.371261,0.01073 0.528336,0.08569 0.100559,0.04799 0.209909,0.14941 1.047921,0.971899 0.846302,0.830627 2.643835,2.641848 3.095273,3.118843 0.195263,0.206317 0.318966,0.363436 0.357384,0.453923 0.0612,0.144139 0.05753,0.48133 -0.0072,0.663848 -0.04298,0.121166 -0.369605,0.461621 -2.199427,2.292572 -1.849233,1.850374 -2.177661,2.157288 -2.436653,2.277042 -0.135552,0.06268 -0.324945,0.06843 -0.49929,0.01516 z"
       id="path4033" />
    <path
       style="opacity:1;fill:#e6e6e6;fill-opacity:1;stroke:#00b8b1;stroke-width:0;stroke-opacity:0.608696"
       d="m 17.214658,16.963019 c 0.83168,-0.0025 2.187511,-0.0025 3.012957,1e-6 0.825446,0.0025 0.144981,0.0045 -1.512146,0.0045 -1.657126,0 -2.332491,-0.002 -1.500811,-0.0045 z"
       id="path4035" />
    <path
       style="opacity:1;fill:url(#Strips1_1);fill-opacity:1;stroke:none;stroke-width:0;stroke-linejoin:round;stroke-opacity:0.608696"
       d=""
       id="path4041" />
  </g>
</svg>
