<?xml version="1.0" encoding="UTF-8" standalone="no"?>
<svg
   xmlns:dc="http://purl.org/dc/elements/1.1/"
   xmlns:cc="http://creativecommons.org/ns#"
   xmlns:rdf="http://www.w3.org/1999/02/22-rdf-syntax-ns#"
   xmlns:svg="http://www.w3.org/2000/svg"
   xmlns="http://www.w3.org/2000/svg"
   xmlns:sodipodi="http://sodipodi.sourceforge.net/DTD/sodipodi-0.dtd"
   xmlns:inkscape="http://www.inkscape.org/namespaces/inkscape"
   aria-hidden="true"
   focusable="false"
   data-prefix="fas"
   data-icon="play-circle"
   class="svg-inline--fa fa-play-circle fa-w-16"
   role="img"
   viewBox="0 0 512 512"
   version="1.1"
   id="svg844"
   sodipodi:docname="icon_play.svg"
   inkscape:version="1.0.2 (e86c8708, 2021-01-15)">
  <metadata
     id="metadata850">
    <rdf:RDF>
      <cc:Work
         rdf:about="">
        <dc:format>image/svg+xml</dc:format>
        <dc:type
           rdf:resource="http://purl.org/dc/dcmitype/StillImage" />
        <dc:title />
      </cc:Work>
    </rdf:RDF>
  </metadata>
  <defs
     id="defs848">
    <marker
       style="overflow:visible"
       id="marker8149"
       refX="0"
       refY="0"
       orient="auto"
       inkscape:stockid="Arrow1Lstart"
       inkscape:isstock="true">
      <path
         transform="matrix(0.8,0,0,0.8,10,0)"
         style="fill:#ffffff;fill-opacity:1;fill-rule:evenodd;stroke:none;stroke-width:1pt;stroke-opacity:1"
         d="M 0,0 5,-5 -12.5,0 5,5 Z"
         id="path8147" />
    </marker>
  </defs>
  <sodipodi:namedview
     pagecolor="#ffffff"
     bordercolor="#666666"
     borderopacity="1"
     objecttolerance="10"
     gridtolerance="10"
     guidetolerance="10"
     inkscape:pageopacity="0"
     inkscape:pageshadow="2"
     inkscape:window-width="1680"
     inkscape:window-height="997"
     id="namedview846"
     showgrid="false"
     inkscape:zoom="1.5921467"
     inkscape:cx="256"
     inkscape:cy="256"
     inkscape:window-x="0"
     inkscape:window-y="25"
     inkscape:window-maximized="1"
     inkscape:current-layer="svg844"
     inkscape:document-rotation="0" />
  <path
     fill="currentColor"
     d="M 256,8 C 119,8 8,119 8,256 8,393 119,504 256,504 393,504 504,393 504,256 504,119 393,8 256,8 Z m 115.7,272 -176,101 C 179.9,389.8 160,378.5 160,360 V 152 c 0,-18.4 19.8,-29.8 35.7,-21 l 176,107 c 16.4,9.2 16.4,32.9 0,42 z"
     id="path842"
     style="opacity:1;fill:#5bc669;fill-opacity:1" />
  <path
     class="st0"
     d="M 187.92034,125.71362 392.00696,238.3807 c 13.73661,7.51114 13.73661,26.28898 0,33.80012 L 187.92034,384.84791 c -13.73661,7.51113 -29.43558,-1.8778 -29.43558,-16.90008 V 142.61369 c 0,-15.02228 15.69897,-24.41121 29.43558,-16.90007 z"
     id="path6482"
     style="fill:#eeeeee;fill-opacity:1;stroke-width:19.1961" />
</svg>
