<?xml version="1.0" encoding="UTF-8" standalone="no"?>
<svg
   xmlns:dc="http://purl.org/dc/elements/1.1/"
   xmlns:cc="http://creativecommons.org/ns#"
   xmlns:rdf="http://www.w3.org/1999/02/22-rdf-syntax-ns#"
   xmlns:svg="http://www.w3.org/2000/svg"
   xmlns="http://www.w3.org/2000/svg"
   xmlns:sodipodi="http://sodipodi.sourceforge.net/DTD/sodipodi-0.dtd"
   xmlns:inkscape="http://www.inkscape.org/namespaces/inkscape"
   id="Layer_1_1_"
   style="enable-background:new 0 0 64 64;"
   version="1.1"
   viewBox="0 0 64 64"
   xml:space="preserve"
   sodipodi:docname="icon-question.svg"
   inkscape:version="1.0.2 (e86c8708, 2021-01-15)"><metadata
     id="metadata1820"><rdf:RDF><cc:Work
         rdf:about=""><dc:format>image/svg+xml</dc:format><dc:type
           rdf:resource="http://purl.org/dc/dcmitype/StillImage" /><dc:title /></cc:Work></rdf:RDF></metadata><defs
     id="defs1818" /><sodipodi:namedview
     pagecolor="#ffffff"
     bordercolor="#666666"
     borderopacity="1"
     objecttolerance="10"
     gridtolerance="10"
     guidetolerance="10"
     inkscape:pageopacity="0"
     inkscape:pageshadow="2"
     inkscape:window-width="1680"
     inkscape:window-height="997"
     id="namedview1816"
     showgrid="false"
     inkscape:zoom="4.2433001"
     inkscape:cx="27.796734"
     inkscape:cy="36.229217"
     inkscape:window-x="0"
     inkscape:window-y="25"
     inkscape:window-maximized="1"
     inkscape:current-layer="g1813"
     inkscape:document-rotation="0" /><g
     id="g1813"
     style="fill:#f2f2f2"><path
       d="M 58,17 H 57 V 1 H 7 V 17 H 6 c -2.757,0 -5,2.243 -5,5 v 30 c 0,2.757 2.243,5 5,5 h 13 v 4 h -4 v 2 h 34 v -2 h -4 v -4 h 13 c 2.757,0 5,-2.243 5,-5 V 22 c 0,-2.757 -2.243,-5 -5,-5 z M 9.0000001,11 H 55 V 43 H 9.0000001 Z M 55,3 V 9 H 9.0000001 V 3 Z M 6,19 H 7 V 45 H 57 V 19 h 1 c 1.654,0 3,1.346 3,3 V 49 H 3 V 22 C 3,20.346 4.346,19 6,19 Z M 43,61 H 21 V 57 H 43 Z M 58,55 H 6 C 4.346,55 3,53.654 3,52 v -1 h 58 v 1 c 0,1.654 -1.346,3 -3,3 z"
       id="path1781"
       style="fill:#288db4;stroke-width:0.999999;opacity:1;fill-opacity:1" /><rect
       height="2"
       width="2"
       x="11"
       y="5"
       id="rect1783"
       style="fill:#288db4;opacity:1;fill-opacity:1" /><rect
       height="2"
       width="2"
       x="15"
       y="5"
       id="rect1785"
       style="fill:#288db4;opacity:1;fill-opacity:1" /><rect
       height="2"
       width="2"
       x="19"
       y="5"
       id="rect1787"
       style="fill:#288db4;opacity:1;fill-opacity:1" /><path
       d="M 32.531,15 H 31.469 C 28.454,15 26,17.454 26,20.469 V 22 h 2 V 20.469 C 28,18.556 29.556,17 31.469,17 h 1.062 c 1.913,0 3.469,1.556 3.469,3.469 0,1.212 -0.646,2.352 -1.685,2.975 L 31,25.434 V 31 h 2 v -4.434 l 2.345,-1.407 C 36.983,24.177 38,22.379 38,20.469 38,17.454 35.546,15 32.531,15 Z"
       id="path1789"
       style="fill:#288db4;opacity:1;fill-opacity:1" /><path
       d="m 32,33 c -1.654,0 -3,1.346 -3,3 0,1.654 1.346,3 3,3 1.654,0 3,-1.346 3,-3 0,-1.654 -1.346,-3 -3,-3 z m 0,4 c -0.551,0 -1,-0.449 -1,-1 0,-0.551 0.449,-1 1,-1 0.551,0 1,0.449 1,1 0,0.551 -0.449,1 -1,1 z"
       id="path1791"
       style="fill:#288db4;opacity:1;fill-opacity:1" /><rect
       height="2"
       width="13"
       x="11"
       y="13"
       id="rect1793"
       style="fill:#288db4;opacity:1;fill-opacity:1" /><rect
       height="2"
       width="13"
       x="11"
       y="17"
       id="rect1795"
       style="fill:#288db4;opacity:1;fill-opacity:1" /><rect
       height="2"
       width="13"
       x="11"
       y="21"
       id="rect1797"
       style="fill:#288db4;opacity:1;fill-opacity:1" /><rect
       height="2"
       width="13"
       x="11"
       y="25"
       id="rect1799"
       style="fill:#288db4;opacity:1;fill-opacity:1" /><rect
       height="2"
       width="13"
       x="11"
       y="29"
       id="rect1801"
       style="fill:#288db4;opacity:1;fill-opacity:1" /><rect
       height="2"
       width="13"
       x="40"
       y="23"
       id="rect1803"
       style="fill:#288db4;opacity:1;fill-opacity:1" /><rect
       height="2"
       width="13"
       x="40"
       y="27"
       id="rect1805"
       style="fill:#288db4;opacity:1;fill-opacity:1" /><rect
       height="2"
       width="13"
       x="40"
       y="31"
       id="rect1807"
       style="fill:#288db4;opacity:1;fill-opacity:1" /><rect
       height="2"
       width="13"
       x="40"
       y="35"
       id="rect1809"
       style="fill:#288db4;opacity:1;fill-opacity:1" /><rect
       height="2"
       width="13"
       x="40"
       y="39"
       id="rect1811"
       style="fill:#288db4;opacity:1;fill-opacity:1" /></g></svg>
