<?xml version="1.0" encoding="UTF-8" standalone="no"?>
<svg
   xmlns:dc="http://purl.org/dc/elements/1.1/"
   xmlns:cc="http://creativecommons.org/ns#"
   xmlns:rdf="http://www.w3.org/1999/02/22-rdf-syntax-ns#"
   xmlns:svg="http://www.w3.org/2000/svg"
   xmlns="http://www.w3.org/2000/svg"
   xmlns:sodipodi="http://sodipodi.sourceforge.net/DTD/sodipodi-0.dtd"
   xmlns:inkscape="http://www.inkscape.org/namespaces/inkscape"
   height="32"
   viewBox="0 0 32 32"
   width="32"
   version="1.1"
   id="svg846"
   sodipodi:docname="icon-login.svg"
   inkscape:version="1.0.2 (e86c8708, 2021-01-15)">
  <metadata
     id="metadata852">
    <rdf:RDF>
      <cc:Work
         rdf:about="">
        <dc:format>image/svg+xml</dc:format>
        <dc:type
           rdf:resource="http://purl.org/dc/dcmitype/StillImage" />
        <dc:title />
      </cc:Work>
    </rdf:RDF>
  </metadata>
  <defs
     id="defs850">
    <filter
       inkscape:collect="always"
       style="color-interpolation-filters:sRGB"
       id="filter2203"
       x="-0.0012521913"
       width="1.0025044"
       y="-0.00098386462"
       height="1.0019677">
      <feGaussianBlur
         inkscape:collect="always"
         stdDeviation="0.011478421"
         id="feGaussianBlur2205" />
    </filter>
  </defs>
  <sodipodi:namedview
     pagecolor="#ffffff"
     bordercolor="#666666"
     borderopacity="1"
     objecttolerance="10"
     gridtolerance="10"
     guidetolerance="10"
     inkscape:pageopacity="0"
     inkscape:pageshadow="2"
     inkscape:window-width="1680"
     inkscape:window-height="997"
     id="namedview848"
     showgrid="false"
     inkscape:zoom="16.465639"
     inkscape:cx="10.883942"
     inkscape:cy="17.930819"
     inkscape:window-x="0"
     inkscape:window-y="25"
     inkscape:window-maximized="1"
     inkscape:current-layer="_1"
     inkscape:document-rotation="0" />
  <g
     data-name="1"
     id="_1">
    <path
       d="m 27,3 v 26 a 1,1 0 0 1 -1,1 H 6 A 1,1 0 0 1 5,29 v -2 h 2 v 1 H 25 V 4 H 7 V 7 H 5 V 3 A 1,1 0 0 1 6,2 h 20 a 1,1 0 0 1 1,1 z m -14.71,17.29 1.42,1.42 5,-5 a 1,1 0 0 0 0,-1.42 l -5,-5 -1.42,1.42 3.3,3.29 H 5 v 2 h 10.59 z"
       id="login_account_enter_door"
       style="opacity:0;fill:#ececec;fill-opacity:1;filter:url(#filter2203)" />
    <path
       style="fill:#5bc669;fill-opacity:1;stroke:none;stroke-width:0;stroke-opacity:0.608696"
       d="m 13.711645,20.903963 c -0.19119,-0.05842 -0.303437,-0.125891 -0.449602,-0.270259 -0.204527,-0.202013 -0.282505,-0.388051 -0.281588,-0.671809 6.78e-4,-0.210201 0.04625,-0.3503 0.164937,-0.507085 0.148266,-0.195855 0.491583,-0.555232 1.474026,-1.542975 0.523408,-0.526234 0.951651,-0.962037 0.951651,-0.968451 0,-0.0064 -2.442431,-0.01163 -5.427626,-0.0116 l -5.427626,6.9e-5 -0.177165,-0.08797 C 4.319473,16.73505 4.175672,16.60172 4.090831,16.42866 3.937657,16.116218 3.955937,15.736421 4.137791,15.453029 4.217431,15.32892 4.394132,15.170573 4.524729,15.10628 4.63019,15.05436 4.653955,15.04994 4.908909,15.03486 5.059747,15.02596 7.496603,15.0146 10.385337,15.0094 L 15.59,15 14.612085,14.016009 c -1.52293,-1.532393 -1.615827,-1.644929 -1.636185,-1.982085 -0.01036,-0.17165 0.02299,-0.309878 0.119679,-0.496055 0.156397,-0.301128 0.390577,-0.465719 0.729742,-0.512893 0.164265,-0.02285 0.371261,0.01073 0.528336,0.08569 0.100559,0.04799 0.209909,0.14941 1.047921,0.971899 0.846302,0.830628 2.643835,2.641849 3.095273,3.118844 0.195263,0.206317 0.318966,0.363436 0.357384,0.453923 0.0612,0.144139 0.05753,0.48133 -0.0072,0.663848 -0.04298,0.121166 -0.369605,0.461621 -2.199427,2.292572 -1.849233,1.850374 -2.177661,2.157288 -2.436653,2.277042 -0.135552,0.06268 -0.324945,0.06843 -0.49929,0.01516 z"
       id="path4033" />
    <path
       d="M 7.0054,6.9999952 7,4 22.999974,3.971357 l 0.04296,23.999961 -15.999974,0.02864 -0.0054,-2.999995 -1.999997,0.0036 0.0072,3.999994 a 1,1 0 0 0 1.001788,0.998208 l 17.999971,-0.03222 a 1,1 0 0 0 0.998223,-1.001819 L 24.99821,2.9677787 A 1,1 0 0 0 23.996422,1.9695704 L 5.996451,2.0017932 A 1,1 0 0 0 4.998243,3.0035818 l 0.0072,3.9999936 z"
       id="path2768"
       style="fill:#606060;fill-opacity:1" />
  </g>
</svg>
