<?xml version="1.0" encoding="UTF-8" standalone="no"?>
<svg
   xmlns:dc="http://purl.org/dc/elements/1.1/"
   xmlns:cc="http://creativecommons.org/ns#"
   xmlns:rdf="http://www.w3.org/1999/02/22-rdf-syntax-ns#"
   xmlns:svg="http://www.w3.org/2000/svg"
   xmlns="http://www.w3.org/2000/svg"
   xmlns:sodipodi="http://sodipodi.sourceforge.net/DTD/sodipodi-0.dtd"
   xmlns:inkscape="http://www.inkscape.org/namespaces/inkscape"
   width="19.590302"
   height="18.06184"
   fill="currentColor"
   class="bi bi-patch-question"
   viewBox="0 0 19.590302 18.06184"
   version="1.1"
   id="svg3123"
   sodipodi:docname="patch-question.svg"
   inkscape:version="1.0.2 (e86c8708, 2021-01-15)">
  <metadata
     id="metadata3129">
    <rdf:RDF>
      <cc:Work
         rdf:about="">
        <dc:format>image/svg+xml</dc:format>
        <dc:type
           rdf:resource="http://purl.org/dc/dcmitype/StillImage" />
      </cc:Work>
    </rdf:RDF>
  </metadata>
  <defs
     id="defs3127" />
  <sodipodi:namedview
     pagecolor="#ffffff"
     bordercolor="#666666"
     borderopacity="1"
     objecttolerance="10"
     gridtolerance="10"
     guidetolerance="10"
     inkscape:pageopacity="0"
     inkscape:pageshadow="2"
     inkscape:window-width="1680"
     inkscape:window-height="997"
     id="namedview3125"
     showgrid="false"
     inkscape:zoom="27.793872"
     inkscape:cx="17.60026"
     inkscape:cy="11.04554"
     inkscape:window-x="0"
     inkscape:window-y="25"
     inkscape:window-maximized="1"
     inkscape:current-layer="svg3123"
     inkscape:document-rotation="0" />
  <path
     d="m 11.641106,11.662645 c 0.336,0 0.504,-0.24 0.554,-0.627 0.04,-0.534 0.198,-0.815 0.847,-1.2599996 0.673,-0.475 1.049,-1.09 1.049,-1.986 0,-1.325 -0.92,-2.227 -2.262,-2.227 -1.02,0 -1.792,0.492 -2.1000001,1.29 a 1.71,1.71 0 0 0 -0.138,0.69 c 0,0.393 0.203,0.64 0.5450001,0.64 0.272,0 0.455,-0.147 0.564,-0.51 0.158,-0.592 0.525,-0.915 1.074,-0.915 0.61,0 1.03,0.446 1.03,1.084 0,0.563 -0.208,0.885 -0.822,1.325 -0.619,0.433 -0.926,0.9139996 -0.926,1.6399996 v 0.111 c 0,0.428 0.208,0.745 0.585,0.745 z"
     id="path3117"
     style="fill:#fbfbfb;fill-opacity:1" />
  <path
     d="m 13.864106,4.5756454 -0.921,-0.944 0.715,-0.698 0.622,0.637 0.89,-0.011 a 2.89,2.89 0 0 1 2.924,2.924 l -0.01,0.89 0.636,0.622 a 2.89,2.89 0 0 1 0,4.1339996 l -0.637,0.622 0.011,0.89 a 2.89,2.89 0 0 1 -2.924,2.924 l -0.89,-0.01 -0.622,0.636 a 2.89,2.89 0 0 1 -4.1340001,0 l -0.622,-0.637 -0.89,0.011 a 2.89,2.89 0 0 1 -2.924,-2.924 l 0.01,-0.89 -0.636,-0.622 a 2.89,2.89 0 0 1 0,-4.1339996 l 0.637,-0.622 -0.011,-0.89 a 2.89,2.89 0 0 1 2.924,-2.924 l 0.89,0.01 0.622,-0.636 a 2.89,2.89 0 0 1 4.1340001,0 l -0.715,0.698 a 1.89,1.89 0 0 0 -2.704,0 l -0.9200001,0.944 -1.32,-0.016 a 1.89,1.89 0 0 0 -1.911,1.912 l 0.016,1.318 -0.944,0.921 a 1.89,1.89 0 0 0 0,2.7039996 l 0.944,0.92 -0.016,1.32 a 1.89,1.89 0 0 0 1.912,1.911 l 1.318,-0.016 0.9210001,0.944 a 1.89,1.89 0 0 0 2.704,0 l 0.92,-0.944 1.32,0.016 a 1.89,1.89 0 0 0 1.911,-1.912 l -0.016,-1.318 0.944,-0.921 a 1.89,1.89 0 0 0 0,-2.7039996 l -0.944,-0.92 0.016,-1.32 a 1.89,1.89 0 0 0 -1.912,-1.911 z"
     id="path3119"
     style="fill:#47cbdd;fill-opacity:1" />
  <path
     d="m 10.593106,13.062645 a 1,1 0 1 1 2,0 1,1 0 0 1 -2,0 z"
     id="path3121"
     style="fill:#fcfdff;fill-opacity:1" />
  <g
     id="g1751"
     transform="matrix(0.06728429,0,0,0.06772677,0.61588454,-0.00638077)"
     style="fill:#5cc85c;fill-opacity:1">
    <g
       id="g1749"
       style="fill:#5cc85c;fill-opacity:1" />
  </g>
  <g
     id="g1757"
     transform="matrix(0.06728429,0,0,0.06772677,0.61588454,-0.00638077)"
     style="fill:#5cc85c;fill-opacity:1">
    <g
       id="g1755"
       style="fill:#5cc85c;fill-opacity:1">
      <g
         id="g1468">
        <path
           d="M 66.696613,34.431667 H 41.413253 V 8.678573 c 0,-4.7364187 -3.777754,-8.58435958 -8.427786,-8.58435958 -4.650032,0 -8.427787,3.84794088 -8.427787,8.58435958 V 34.431667 H -0.72568044 c -4.65003116,0 -8.42778676,3.847941 -8.42778676,8.58436 0,4.736426 3.7777556,8.584368 8.42778676,8.584368 H 24.55768 v 25.753087 c 0,4.736427 3.777755,8.584365 8.427787,8.584365 4.650032,0 8.427786,-3.847938 8.427786,-8.584365 V 51.600395 h 25.28336 c 4.650029,0 8.427794,-3.847942 8.427794,-8.584368 0,-4.736419 -3.777765,-8.58436 -8.427794,-8.58436 z"
           fill="#8bc34a"
           id="path1753"
           style="fill:#5cc85c;fill-opacity:1;stroke-width:1.06322" />
      </g>
    </g>
  </g>
</svg>
