<?xml version="1.0" encoding="UTF-8" standalone="no"?>
<svg
   xmlns:dc="http://purl.org/dc/elements/1.1/"
   xmlns:cc="http://creativecommons.org/ns#"
   xmlns:rdf="http://www.w3.org/1999/02/22-rdf-syntax-ns#"
   xmlns:svg="http://www.w3.org/2000/svg"
   xmlns="http://www.w3.org/2000/svg"
   xmlns:sodipodi="http://sodipodi.sourceforge.net/DTD/sodipodi-0.dtd"
   xmlns:inkscape="http://www.inkscape.org/namespaces/inkscape"
   width="18.974417"
   height="18.068222"
   fill="currentColor"
   class="bi bi-patch-question"
   viewBox="0 0 18.974417 18.068222"
   version="1.1"
   id="svg3123"
   sodipodi:docname="patch-question.svg"
   inkscape:version="1.0.2 (e86c8708, 2021-01-15)">
  <metadata
     id="metadata3129">
    <rdf:RDF>
      <cc:Work
         rdf:about="">
        <dc:format>image/svg+xml</dc:format>
        <dc:type
           rdf:resource="http://purl.org/dc/dcmitype/StillImage" />
      </cc:Work>
    </rdf:RDF>
  </metadata>
  <defs
     id="defs3127" />
  <sodipodi:namedview
     pagecolor="#ffffff"
     bordercolor="#666666"
     borderopacity="1"
     objecttolerance="10"
     gridtolerance="10"
     guidetolerance="10"
     inkscape:pageopacity="0"
     inkscape:pageshadow="2"
     inkscape:window-width="1472"
     inkscape:window-height="985"
     id="namedview3125"
     showgrid="false"
     inkscape:zoom="45.574252"
     inkscape:cx="13.920317"
     inkscape:cy="4.6462685"
     inkscape:window-x="0"
     inkscape:window-y="25"
     inkscape:window-maximized="0"
     inkscape:current-layer="svg3123"
     inkscape:document-rotation="0" />
  <path
     d="m 11.025221,11.669026 c 0.336,0 0.504,-0.24 0.554,-0.627 0.04,-0.534 0.198,-0.815 0.847,-1.2599998 0.673,-0.475 1.049,-1.09 1.049,-1.986 0,-1.325 -0.92,-2.227 -2.262,-2.227 -1.02,0 -1.7919996,0.492 -2.0999996,1.29 a 1.71,1.71 0 0 0 -0.138,0.69 c 0,0.393 0.203,0.64 0.545,0.64 0.272,0 0.455,-0.147 0.5639996,-0.51 0.158,-0.592 0.525,-0.915 1.074,-0.915 0.61,0 1.03,0.446 1.03,1.084 0,0.563 -0.208,0.885 -0.822,1.325 -0.619,0.433 -0.926,0.9139998 -0.926,1.6399998 v 0.111 c 0,0.428 0.208,0.745 0.585,0.745 z"
     id="path3117"
     style="fill:#b3b3b3" />
  <path
     d="m 13.248221,4.5820262 -0.921,-0.944 0.715,-0.698 0.622,0.637 0.89,-0.011 a 2.89,2.89 0 0 1 2.924,2.924 l -0.01,0.89 0.636,0.622 a 2.89,2.89 0 0 1 0,4.1339998 l -0.637,0.622 0.011,0.89 a 2.89,2.89 0 0 1 -2.924,2.924 l -0.89,-0.01 -0.622,0.636 a 2.89,2.89 0 0 1 -4.1339996,0 l -0.622,-0.637 -0.89,0.011 a 2.89,2.89 0 0 1 -2.924,-2.924 l 0.01,-0.89 -0.636,-0.622 a 2.89,2.89 0 0 1 0,-4.1339998 l 0.637,-0.622 -0.011,-0.89 a 2.89,2.89 0 0 1 2.924,-2.924 l 0.89,0.01 0.622,-0.636 a 2.89,2.89 0 0 1 4.1339996,0 l -0.715,0.698 a 1.89,1.89 0 0 0 -2.7039996,0 l -0.92,0.944 -1.32,-0.016 a 1.89,1.89 0 0 0 -1.911,1.912 l 0.016,1.318 -0.944,0.921 a 1.89,1.89 0 0 0 0,2.7039998 l 0.944,0.92 -0.016,1.32 a 1.89,1.89 0 0 0 1.912,1.911 l 1.318,-0.016 0.921,0.944 a 1.89,1.89 0 0 0 2.7039996,0 l 0.92,-0.944 1.32,0.016 a 1.89,1.89 0 0 0 1.911,-1.912 l -0.016,-1.318 0.944,-0.921 a 1.89,1.89 0 0 0 0,-2.7039998 l -0.944,-0.92 0.016,-1.32 a 1.89,1.89 0 0 0 -1.912,-1.911 z"
     id="path3119"
     style="fill:#e6e6e6;fill-opacity:1" />
  <path
     d="m 9.9772214,13.069026 a 1,1 0 1 1 1.9999996,0 1,1 0 0 1 -1.9999996,0 z"
     id="path3121"
     style="fill:#b3b3b3" />
  <g
     id="g1751"
     transform="scale(0.06728429,0.06772677)"
     style="fill:#5cc85c;fill-opacity:1">
    <g
       id="g1749"
       style="fill:#5cc85c;fill-opacity:1">
      <path
         d="M 64,0 C 28.656,0 0,28.656 0,64 0,99.344 28.656,128 64,128 99.344,128 128,99.344 128,64 128,28.656 99.344,0 64,0 Z m 0,120 C 33.125,120 8,94.875 8,64 8,33.125 33.125,8 64,8 c 30.875,0 56,25.125 56,56 0,30.875 -25.125,56 -56,56 z"
         fill="#b0bec5"
         id="path1747"
         style="fill:#5cc85c;fill-opacity:1" />
    </g>
  </g>
  <g
     id="g1757"
     transform="scale(0.06728429,0.06772677)"
     style="fill:#5cc85c;fill-opacity:1">
    <g
       id="g1755"
       style="fill:#5cc85c;fill-opacity:1">
      <path
         d="M 96,56 H 72 V 32 c 0,-4.414 -3.586,-8 -8,-8 -4.414,0 -8,3.586 -8,8 V 56 H 32 c -4.414,0 -8,3.586 -8,8 0,4.414 3.586,8 8,8 h 24 v 24 c 0,4.414 3.586,8 8,8 4.414,0 8,-3.586 8,-8 V 72 h 24 c 4.414,0 8,-3.586 8,-8 0,-4.414 -3.586,-8 -8,-8 z"
         fill="#8bc34a"
         id="path1753"
         style="fill:#5cc85c;fill-opacity:1" />
    </g>
  </g>
</svg>
